G04 #@! TF.GenerationSoftware,KiCad,Pcbnew,(5.1.9-0-10_14)*
G04 #@! TF.CreationDate,2021-07-10T20:46:14+09:00*
G04 #@! TF.ProjectId,EB-STM32L4P5CG,45422d53-544d-4333-924c-34503543472e,V1.0*
G04 #@! TF.SameCoordinates,Original*
G04 #@! TF.FileFunction,Paste,Top*
G04 #@! TF.FilePolarity,Positive*
%FSLAX46Y46*%
G04 Gerber Fmt 4.6, Leading zero omitted, Abs format (unit mm)*
G04 Created by KiCad (PCBNEW (5.1.9-0-10_14)) date 2021-07-10 20:46:14*
%MOMM*%
%LPD*%
G01*
G04 APERTURE LIST*
%ADD10R,1.100000X1.250000*%
%ADD11R,1.800000X1.200000*%
%ADD12R,0.150000X1.400000*%
%ADD13R,1.400000X0.150000*%
%ADD14R,1.500000X2.500000*%
%ADD15R,0.350000X0.150000*%
%ADD16R,0.675000X0.200000*%
%ADD17R,0.200000X0.700000*%
%ADD18R,1.000000X1.600000*%
%ADD19R,0.650000X2.770000*%
%ADD20R,2.100000X1.600000*%
%ADD21R,0.300000X1.750000*%
G04 APERTURE END LIST*
D10*
X-3000000Y-15250000D03*
X-3000000Y-12750000D03*
X-1000000Y-12750000D03*
X-1000000Y-15250000D03*
G36*
G01*
X-2250000Y-3675000D02*
X-2250000Y-4125000D01*
G75*
G02*
X-2475000Y-4350000I-225000J0D01*
G01*
X-3025000Y-4350000D01*
G75*
G02*
X-3250000Y-4125000I0J225000D01*
G01*
X-3250000Y-3675000D01*
G75*
G02*
X-3025000Y-3450000I225000J0D01*
G01*
X-2475000Y-3450000D01*
G75*
G02*
X-2250000Y-3675000I0J-225000D01*
G01*
G37*
G36*
G01*
X-3950000Y-3675000D02*
X-3950000Y-4125000D01*
G75*
G02*
X-4175000Y-4350000I-225000J0D01*
G01*
X-4725000Y-4350000D01*
G75*
G02*
X-4950000Y-4125000I0J225000D01*
G01*
X-4950000Y-3675000D01*
G75*
G02*
X-4725000Y-3450000I225000J0D01*
G01*
X-4175000Y-3450000D01*
G75*
G02*
X-3950000Y-3675000I0J-225000D01*
G01*
G37*
G36*
G01*
X-2250000Y-5175000D02*
X-2250000Y-5625000D01*
G75*
G02*
X-2475000Y-5850000I-225000J0D01*
G01*
X-3025000Y-5850000D01*
G75*
G02*
X-3250000Y-5625000I0J225000D01*
G01*
X-3250000Y-5175000D01*
G75*
G02*
X-3025000Y-4950000I225000J0D01*
G01*
X-2475000Y-4950000D01*
G75*
G02*
X-2250000Y-5175000I0J-225000D01*
G01*
G37*
G36*
G01*
X-3950000Y-5175000D02*
X-3950000Y-5625000D01*
G75*
G02*
X-4175000Y-5850000I-225000J0D01*
G01*
X-4725000Y-5850000D01*
G75*
G02*
X-4950000Y-5625000I0J225000D01*
G01*
X-4950000Y-5175000D01*
G75*
G02*
X-4725000Y-4950000I225000J0D01*
G01*
X-4175000Y-4950000D01*
G75*
G02*
X-3950000Y-5175000I0J-225000D01*
G01*
G37*
D11*
X2000000Y-12700000D03*
X2000000Y-15300000D03*
D12*
X2750000Y-20650000D03*
X2250000Y-20650000D03*
X1750000Y-20650000D03*
X1250000Y-20650000D03*
X750000Y-20650000D03*
X250000Y-20650000D03*
X-250000Y-20650000D03*
X-750000Y-20650000D03*
X-1250000Y-20650000D03*
X-1750000Y-20650000D03*
X-2250000Y-20650000D03*
X-2750000Y-20650000D03*
D13*
X-4350000Y-22250000D03*
X-4350000Y-22750000D03*
X-4350000Y-23250000D03*
X-4350000Y-23750000D03*
X-4350000Y-24250000D03*
X-4350000Y-24750000D03*
X-4350000Y-25250000D03*
X-4350000Y-25750000D03*
X-4350000Y-26250000D03*
X-4350000Y-26750000D03*
X-4350000Y-27250000D03*
X-4350000Y-27750000D03*
D12*
X-2750000Y-29350000D03*
X-2250000Y-29350000D03*
X-1750000Y-29350000D03*
X-1250000Y-29350000D03*
X-750000Y-29350000D03*
X-250000Y-29350000D03*
X250000Y-29350000D03*
X750000Y-29350000D03*
X1250000Y-29350000D03*
X1750000Y-29350000D03*
X2250000Y-29350000D03*
X2750000Y-29350000D03*
D13*
X4350000Y-27750000D03*
X4350000Y-27250000D03*
X4350000Y-26750000D03*
X4350000Y-26250000D03*
X4350000Y-25750000D03*
X4350000Y-25250000D03*
X4350000Y-24750000D03*
X4350000Y-24250000D03*
X4350000Y-23750000D03*
X4350000Y-23250000D03*
X4350000Y-22750000D03*
X4350000Y-22250000D03*
D14*
X2400000Y-7400000D03*
D13*
X4200000Y-6150000D03*
X4200000Y-6650000D03*
X4200000Y-7150000D03*
X4200000Y-7650000D03*
X4200000Y-8150000D03*
X4200000Y-8650000D03*
X600000Y-8650000D03*
X600000Y-8150000D03*
X600000Y-7650000D03*
X600000Y-7150000D03*
X600000Y-6650000D03*
X600000Y-6150000D03*
D15*
X1475000Y-8150000D03*
D16*
X1612500Y-4275000D03*
X1612500Y-3725000D03*
D17*
X2400000Y-3350000D03*
D16*
X3187500Y-3725000D03*
X3187500Y-4275000D03*
D17*
X2400000Y-4650000D03*
D18*
X-2200000Y-43500000D03*
X2200000Y-43500000D03*
G36*
G01*
X-2250000Y-6675000D02*
X-2250000Y-7125000D01*
G75*
G02*
X-2475000Y-7350000I-225000J0D01*
G01*
X-3025000Y-7350000D01*
G75*
G02*
X-3250000Y-7125000I0J225000D01*
G01*
X-3250000Y-6675000D01*
G75*
G02*
X-3025000Y-6450000I225000J0D01*
G01*
X-2475000Y-6450000D01*
G75*
G02*
X-2250000Y-6675000I0J-225000D01*
G01*
G37*
G36*
G01*
X-3950000Y-6675000D02*
X-3950000Y-7125000D01*
G75*
G02*
X-4175000Y-7350000I-225000J0D01*
G01*
X-4725000Y-7350000D01*
G75*
G02*
X-4950000Y-7125000I0J225000D01*
G01*
X-4950000Y-6675000D01*
G75*
G02*
X-4725000Y-6450000I225000J0D01*
G01*
X-4175000Y-6450000D01*
G75*
G02*
X-3950000Y-6675000I0J-225000D01*
G01*
G37*
G36*
G01*
X-7850000Y8575000D02*
X-7850000Y9025000D01*
G75*
G02*
X-7625000Y9250000I225000J0D01*
G01*
X-7075000Y9250000D01*
G75*
G02*
X-6850000Y9025000I0J-225000D01*
G01*
X-6850000Y8575000D01*
G75*
G02*
X-7075000Y8350000I-225000J0D01*
G01*
X-7625000Y8350000D01*
G75*
G02*
X-7850000Y8575000I0J225000D01*
G01*
G37*
G36*
G01*
X-6150000Y8575000D02*
X-6150000Y9025000D01*
G75*
G02*
X-5925000Y9250000I225000J0D01*
G01*
X-5375000Y9250000D01*
G75*
G02*
X-5150000Y9025000I0J-225000D01*
G01*
X-5150000Y8575000D01*
G75*
G02*
X-5375000Y8350000I-225000J0D01*
G01*
X-5925000Y8350000D01*
G75*
G02*
X-6150000Y8575000I0J225000D01*
G01*
G37*
G36*
G01*
X5150000Y8575000D02*
X5150000Y9025000D01*
G75*
G02*
X5375000Y9250000I225000J0D01*
G01*
X5925000Y9250000D01*
G75*
G02*
X6150000Y9025000I0J-225000D01*
G01*
X6150000Y8575000D01*
G75*
G02*
X5925000Y8350000I-225000J0D01*
G01*
X5375000Y8350000D01*
G75*
G02*
X5150000Y8575000I0J225000D01*
G01*
G37*
G36*
G01*
X6850000Y8575000D02*
X6850000Y9025000D01*
G75*
G02*
X7075000Y9250000I225000J0D01*
G01*
X7625000Y9250000D01*
G75*
G02*
X7850000Y9025000I0J-225000D01*
G01*
X7850000Y8575000D01*
G75*
G02*
X7625000Y8350000I-225000J0D01*
G01*
X7075000Y8350000D01*
G75*
G02*
X6850000Y8575000I0J225000D01*
G01*
G37*
D19*
X3810000Y5778000D03*
X3810000Y2222000D03*
X2540000Y5778000D03*
X2540000Y2222000D03*
X1270000Y5778000D03*
X1270000Y2222000D03*
X0Y5778000D03*
X0Y2222000D03*
X-1270000Y5778000D03*
X-1270000Y2222000D03*
X-2540000Y5778000D03*
X-2540000Y2222000D03*
X-3810000Y5778000D03*
X-3810000Y2222000D03*
D20*
X-3100000Y9950000D03*
X3100000Y9950000D03*
D21*
X-1300000Y9625000D03*
X-650000Y9625000D03*
X0Y9625000D03*
X650000Y9625000D03*
X1300000Y9625000D03*
G36*
G01*
X7850000Y10525000D02*
X7850000Y10075000D01*
G75*
G02*
X7625000Y9850000I-225000J0D01*
G01*
X7075000Y9850000D01*
G75*
G02*
X6850000Y10075000I0J225000D01*
G01*
X6850000Y10525000D01*
G75*
G02*
X7075000Y10750000I225000J0D01*
G01*
X7625000Y10750000D01*
G75*
G02*
X7850000Y10525000I0J-225000D01*
G01*
G37*
G36*
G01*
X6150000Y10525000D02*
X6150000Y10075000D01*
G75*
G02*
X5925000Y9850000I-225000J0D01*
G01*
X5375000Y9850000D01*
G75*
G02*
X5150000Y10075000I0J225000D01*
G01*
X5150000Y10525000D01*
G75*
G02*
X5375000Y10750000I225000J0D01*
G01*
X5925000Y10750000D01*
G75*
G02*
X6150000Y10525000I0J-225000D01*
G01*
G37*
G36*
G01*
X-2250000Y-8175000D02*
X-2250000Y-8625000D01*
G75*
G02*
X-2475000Y-8850000I-225000J0D01*
G01*
X-3025000Y-8850000D01*
G75*
G02*
X-3250000Y-8625000I0J225000D01*
G01*
X-3250000Y-8175000D01*
G75*
G02*
X-3025000Y-7950000I225000J0D01*
G01*
X-2475000Y-7950000D01*
G75*
G02*
X-2250000Y-8175000I0J-225000D01*
G01*
G37*
G36*
G01*
X-3950000Y-8175000D02*
X-3950000Y-8625000D01*
G75*
G02*
X-4175000Y-8850000I-225000J0D01*
G01*
X-4725000Y-8850000D01*
G75*
G02*
X-4950000Y-8625000I0J225000D01*
G01*
X-4950000Y-8175000D01*
G75*
G02*
X-4725000Y-7950000I225000J0D01*
G01*
X-4175000Y-7950000D01*
G75*
G02*
X-3950000Y-8175000I0J-225000D01*
G01*
G37*
G36*
G01*
X-5150000Y10525000D02*
X-5150000Y10075000D01*
G75*
G02*
X-5375000Y9850000I-225000J0D01*
G01*
X-5925000Y9850000D01*
G75*
G02*
X-6150000Y10075000I0J225000D01*
G01*
X-6150000Y10525000D01*
G75*
G02*
X-5925000Y10750000I225000J0D01*
G01*
X-5375000Y10750000D01*
G75*
G02*
X-5150000Y10525000I0J-225000D01*
G01*
G37*
G36*
G01*
X-6850000Y10525000D02*
X-6850000Y10075000D01*
G75*
G02*
X-7075000Y9850000I-225000J0D01*
G01*
X-7625000Y9850000D01*
G75*
G02*
X-7850000Y10075000I0J225000D01*
G01*
X-7850000Y10525000D01*
G75*
G02*
X-7625000Y10750000I225000J0D01*
G01*
X-7075000Y10750000D01*
G75*
G02*
X-6850000Y10525000I0J-225000D01*
G01*
G37*
G36*
G01*
X3775000Y-29350000D02*
X4225000Y-29350000D01*
G75*
G02*
X4450000Y-29575000I0J-225000D01*
G01*
X4450000Y-30125000D01*
G75*
G02*
X4225000Y-30350000I-225000J0D01*
G01*
X3775000Y-30350000D01*
G75*
G02*
X3550000Y-30125000I0J225000D01*
G01*
X3550000Y-29575000D01*
G75*
G02*
X3775000Y-29350000I225000J0D01*
G01*
G37*
G36*
G01*
X3775000Y-31050000D02*
X4225000Y-31050000D01*
G75*
G02*
X4450000Y-31275000I0J-225000D01*
G01*
X4450000Y-31825000D01*
G75*
G02*
X4225000Y-32050000I-225000J0D01*
G01*
X3775000Y-32050000D01*
G75*
G02*
X3550000Y-31825000I0J225000D01*
G01*
X3550000Y-31275000D01*
G75*
G02*
X3775000Y-31050000I225000J0D01*
G01*
G37*
G36*
G01*
X-4225000Y-29350000D02*
X-3775000Y-29350000D01*
G75*
G02*
X-3550000Y-29575000I0J-225000D01*
G01*
X-3550000Y-30125000D01*
G75*
G02*
X-3775000Y-30350000I-225000J0D01*
G01*
X-4225000Y-30350000D01*
G75*
G02*
X-4450000Y-30125000I0J225000D01*
G01*
X-4450000Y-29575000D01*
G75*
G02*
X-4225000Y-29350000I225000J0D01*
G01*
G37*
G36*
G01*
X-4225000Y-31050000D02*
X-3775000Y-31050000D01*
G75*
G02*
X-3550000Y-31275000I0J-225000D01*
G01*
X-3550000Y-31825000D01*
G75*
G02*
X-3775000Y-32050000I-225000J0D01*
G01*
X-4225000Y-32050000D01*
G75*
G02*
X-4450000Y-31825000I0J225000D01*
G01*
X-4450000Y-31275000D01*
G75*
G02*
X-4225000Y-31050000I225000J0D01*
G01*
G37*
G36*
G01*
X-4525000Y-20650000D02*
X-4975000Y-20650000D01*
G75*
G02*
X-5200000Y-20425000I0J225000D01*
G01*
X-5200000Y-19875000D01*
G75*
G02*
X-4975000Y-19650000I225000J0D01*
G01*
X-4525000Y-19650000D01*
G75*
G02*
X-4300000Y-19875000I0J-225000D01*
G01*
X-4300000Y-20425000D01*
G75*
G02*
X-4525000Y-20650000I-225000J0D01*
G01*
G37*
G36*
G01*
X-4525000Y-18950000D02*
X-4975000Y-18950000D01*
G75*
G02*
X-5200000Y-18725000I0J225000D01*
G01*
X-5200000Y-18175000D01*
G75*
G02*
X-4975000Y-17950000I225000J0D01*
G01*
X-4525000Y-17950000D01*
G75*
G02*
X-4300000Y-18175000I0J-225000D01*
G01*
X-4300000Y-18725000D01*
G75*
G02*
X-4525000Y-18950000I-225000J0D01*
G01*
G37*
G36*
G01*
X4975000Y-20650000D02*
X4525000Y-20650000D01*
G75*
G02*
X4300000Y-20425000I0J225000D01*
G01*
X4300000Y-19875000D01*
G75*
G02*
X4525000Y-19650000I225000J0D01*
G01*
X4975000Y-19650000D01*
G75*
G02*
X5200000Y-19875000I0J-225000D01*
G01*
X5200000Y-20425000D01*
G75*
G02*
X4975000Y-20650000I-225000J0D01*
G01*
G37*
G36*
G01*
X4975000Y-18950000D02*
X4525000Y-18950000D01*
G75*
G02*
X4300000Y-18725000I0J225000D01*
G01*
X4300000Y-18175000D01*
G75*
G02*
X4525000Y-17950000I225000J0D01*
G01*
X4975000Y-17950000D01*
G75*
G02*
X5200000Y-18175000I0J-225000D01*
G01*
X5200000Y-18725000D01*
G75*
G02*
X4975000Y-18950000I-225000J0D01*
G01*
G37*
G36*
G01*
X2800000Y-16450000D02*
X2800000Y-16750000D01*
G75*
G02*
X2650000Y-16900000I-150000J0D01*
G01*
X2350000Y-16900000D01*
G75*
G02*
X2200000Y-16750000I0J150000D01*
G01*
X2200000Y-16450000D01*
G75*
G02*
X2350000Y-16300000I150000J0D01*
G01*
X2650000Y-16300000D01*
G75*
G02*
X2800000Y-16450000I0J-150000D01*
G01*
G37*
G36*
G01*
X1800000Y-16450000D02*
X1800000Y-16750000D01*
G75*
G02*
X1650000Y-16900000I-150000J0D01*
G01*
X1350000Y-16900000D01*
G75*
G02*
X1200000Y-16750000I0J150000D01*
G01*
X1200000Y-16450000D01*
G75*
G02*
X1350000Y-16300000I150000J0D01*
G01*
X1650000Y-16300000D01*
G75*
G02*
X1800000Y-16450000I0J-150000D01*
G01*
G37*
G36*
G01*
X2800000Y-11240000D02*
X2800000Y-11540000D01*
G75*
G02*
X2650000Y-11690000I-150000J0D01*
G01*
X2350000Y-11690000D01*
G75*
G02*
X2200000Y-11540000I0J150000D01*
G01*
X2200000Y-11240000D01*
G75*
G02*
X2350000Y-11090000I150000J0D01*
G01*
X2650000Y-11090000D01*
G75*
G02*
X2800000Y-11240000I0J-150000D01*
G01*
G37*
G36*
G01*
X1800000Y-11240000D02*
X1800000Y-11540000D01*
G75*
G02*
X1650000Y-11690000I-150000J0D01*
G01*
X1350000Y-11690000D01*
G75*
G02*
X1200000Y-11540000I0J150000D01*
G01*
X1200000Y-11240000D01*
G75*
G02*
X1350000Y-11090000I150000J0D01*
G01*
X1650000Y-11090000D01*
G75*
G02*
X1800000Y-11240000I0J-150000D01*
G01*
G37*
G36*
G01*
X-2800000Y-11550000D02*
X-2800000Y-11250000D01*
G75*
G02*
X-2650000Y-11100000I150000J0D01*
G01*
X-2350000Y-11100000D01*
G75*
G02*
X-2200000Y-11250000I0J-150000D01*
G01*
X-2200000Y-11550000D01*
G75*
G02*
X-2350000Y-11700000I-150000J0D01*
G01*
X-2650000Y-11700000D01*
G75*
G02*
X-2800000Y-11550000I0J150000D01*
G01*
G37*
G36*
G01*
X-1800000Y-11550000D02*
X-1800000Y-11250000D01*
G75*
G02*
X-1650000Y-11100000I150000J0D01*
G01*
X-1350000Y-11100000D01*
G75*
G02*
X-1200000Y-11250000I0J-150000D01*
G01*
X-1200000Y-11550000D01*
G75*
G02*
X-1350000Y-11700000I-150000J0D01*
G01*
X-1650000Y-11700000D01*
G75*
G02*
X-1800000Y-11550000I0J150000D01*
G01*
G37*
G36*
G01*
X-1200000Y-16450000D02*
X-1200000Y-16750000D01*
G75*
G02*
X-1350000Y-16900000I-150000J0D01*
G01*
X-1650000Y-16900000D01*
G75*
G02*
X-1800000Y-16750000I0J150000D01*
G01*
X-1800000Y-16450000D01*
G75*
G02*
X-1650000Y-16300000I150000J0D01*
G01*
X-1350000Y-16300000D01*
G75*
G02*
X-1200000Y-16450000I0J-150000D01*
G01*
G37*
G36*
G01*
X-2200000Y-16450000D02*
X-2200000Y-16750000D01*
G75*
G02*
X-2350000Y-16900000I-150000J0D01*
G01*
X-2650000Y-16900000D01*
G75*
G02*
X-2800000Y-16750000I0J150000D01*
G01*
X-2800000Y-16450000D01*
G75*
G02*
X-2650000Y-16300000I150000J0D01*
G01*
X-2350000Y-16300000D01*
G75*
G02*
X-2200000Y-16450000I0J-150000D01*
G01*
G37*
M02*
