G04 #@! TF.GenerationSoftware,KiCad,Pcbnew,(5.1.9-0-10_14)*
G04 #@! TF.CreationDate,2021-07-10T20:46:14+09:00*
G04 #@! TF.ProjectId,EB-STM32L4P5CG,45422d53-544d-4333-924c-34503543472e,V1.0*
G04 #@! TF.SameCoordinates,Original*
G04 #@! TF.FileFunction,Copper,L2,Bot*
G04 #@! TF.FilePolarity,Positive*
%FSLAX46Y46*%
G04 Gerber Fmt 4.6, Leading zero omitted, Abs format (unit mm)*
G04 Created by KiCad (PCBNEW (5.1.9-0-10_14)) date 2021-07-10 20:46:14*
%MOMM*%
%LPD*%
G01*
G04 APERTURE LIST*
G04 #@! TA.AperFunction,ComponentPad*
%ADD10R,1.600000X1.600000*%
G04 #@! TD*
G04 #@! TA.AperFunction,ComponentPad*
%ADD11C,1.400000*%
G04 #@! TD*
G04 #@! TA.AperFunction,ComponentPad*
%ADD12R,1.400000X1.400000*%
G04 #@! TD*
G04 #@! TA.AperFunction,ComponentPad*
%ADD13R,1.800000X1.900000*%
G04 #@! TD*
G04 #@! TA.AperFunction,ViaPad*
%ADD14C,0.609600*%
G04 #@! TD*
G04 #@! TA.AperFunction,Conductor*
%ADD15C,0.203200*%
G04 #@! TD*
G04 APERTURE END LIST*
D10*
X8900000Y12200000D03*
X-8890000Y12200000D03*
D11*
X8890000Y-45720000D03*
X8890000Y-43180000D03*
X8890000Y-40640000D03*
X8890000Y-38100000D03*
X8890000Y-35560000D03*
X8890000Y-33020000D03*
D12*
X8890000Y0D03*
D11*
X8890000Y-2540000D03*
X8890000Y-5080000D03*
X8890000Y-7620000D03*
X8890000Y-10160000D03*
X8890000Y-12700000D03*
X8890000Y-15240000D03*
X8890000Y-17780000D03*
X8890000Y-20320000D03*
X8890000Y-22860000D03*
X8890000Y-25400000D03*
X8890000Y-27940000D03*
X8890000Y-30480000D03*
X-8890000Y-45720000D03*
X-8890000Y-43180000D03*
X-8890000Y-40640000D03*
X-8890000Y-38100000D03*
X-8890000Y-35560000D03*
X-8890000Y-33020000D03*
D12*
X-8890000Y0D03*
D11*
X-8890000Y-2540000D03*
X-8890000Y-5080000D03*
X-8890000Y-7620000D03*
X-8890000Y-10160000D03*
X-8890000Y-12700000D03*
X-8890000Y-15240000D03*
X-8890000Y-17780000D03*
X-8890000Y-20320000D03*
X-8890000Y-22860000D03*
X-8890000Y-25400000D03*
X-8890000Y-27940000D03*
X-8890000Y-30480000D03*
D13*
X-3250000Y12500000D03*
X3250000Y12500000D03*
D14*
X1175600Y-43477900D03*
X-5287500Y-31112500D03*
X-6050000Y-18450000D03*
X-1100000Y-17590400D03*
X5350000Y-16250000D03*
X-1350000Y-7750700D03*
X-3850000Y-10000000D03*
X-3461100Y-2378000D03*
X-679900Y-19161100D03*
X3367800Y-19650000D03*
X1750000Y-28130500D03*
X2378200Y-1615800D03*
X5576200Y-28044000D03*
X1610000Y-1040200D03*
X-2347900Y-1277300D03*
X-2546400Y-40257700D03*
X-128600Y-22041800D03*
X5431700Y-7000000D03*
X3234500Y-9185100D03*
X600000Y-5557300D03*
X3700000Y-5200000D03*
D15*
X-1100000Y-17590400D02*
X4009600Y-17590400D01*
X4009600Y-17590400D02*
X5350000Y-16250000D01*
X-5287500Y-31112500D02*
X-5287500Y-38382300D01*
X-5287500Y-38382300D02*
X-191900Y-43477900D01*
X-191900Y-43477900D02*
X1175600Y-43477900D01*
X-6050000Y-18450000D02*
X-5287600Y-19212400D01*
X-5287600Y-19212400D02*
X-5287600Y-31112500D01*
X-5287600Y-31112500D02*
X-5287500Y-31112500D01*
X-1100000Y-17590400D02*
X-5190400Y-17590400D01*
X-5190400Y-17590400D02*
X-6050000Y-18450000D01*
X-3599300Y-10000000D02*
X-3850000Y-10000000D01*
X-1350000Y-7750700D02*
X-3599300Y-10000000D01*
X-3461100Y-2378000D02*
X-8728000Y-2378000D01*
X-8728000Y-2378000D02*
X-8890000Y-2540000D01*
X997300Y-745000D02*
X914100Y-661800D01*
X914100Y-661800D02*
X-2603100Y-661800D01*
X-2603100Y-661800D02*
X-3461100Y-1519800D01*
X-3461100Y-1519800D02*
X-3461100Y-2378000D01*
X997300Y-745000D02*
X1334500Y-407800D01*
X1334500Y-407800D02*
X6757800Y-407800D01*
X6757800Y-407800D02*
X8890000Y-2540000D01*
X3367800Y-19431900D02*
X3649600Y-19431900D01*
X3649600Y-19431900D02*
X6472200Y-16609300D01*
X6472200Y-16609300D02*
X6472200Y-6509400D01*
X6472200Y-6509400D02*
X2578200Y-2615400D01*
X2578200Y-2615400D02*
X2314400Y-2615400D01*
X2314400Y-2615400D02*
X997300Y-1298300D01*
X997300Y-1298300D02*
X997300Y-745000D01*
X3367800Y-19650000D02*
X3367800Y-19431900D01*
X3367800Y-19431900D02*
X-409100Y-19431900D01*
X-409100Y-19431900D02*
X-679900Y-19161100D01*
X1750000Y-28130500D02*
X6878900Y-23001600D01*
X6878900Y-23001600D02*
X6878900Y-6116500D01*
X6878900Y-6116500D02*
X2378200Y-1615800D01*
X5576200Y-28044000D02*
X7310000Y-26310200D01*
X7310000Y-26310200D02*
X7310000Y-5680700D01*
X7310000Y-5680700D02*
X2585200Y-955900D01*
X2585200Y-955900D02*
X1694300Y-955900D01*
X1694300Y-955900D02*
X1610000Y-1040200D01*
X-2347900Y-1277300D02*
X-23700Y-3601500D01*
X-23700Y-3601500D02*
X2989000Y-3601500D01*
X2989000Y-3601500D02*
X6065400Y-6677900D01*
X6065400Y-6677900D02*
X6065400Y-16421900D01*
X6065400Y-16421900D02*
X4286900Y-18200400D01*
X4286900Y-18200400D02*
X-662200Y-18200400D01*
X-662200Y-18200400D02*
X-1289900Y-18828100D01*
X-1289900Y-18828100D02*
X-1289900Y-20880500D01*
X-1289900Y-20880500D02*
X-128600Y-22041800D01*
X-2546400Y-40257700D02*
X-2546400Y-24459600D01*
X-2546400Y-24459600D02*
X-128600Y-22041800D01*
X7884900Y0D02*
X-7884900Y0D01*
X-8890000Y0D02*
X-7884900Y0D01*
X8890000Y0D02*
X7884900Y0D01*
X-8890000Y-12700000D02*
X-3331100Y-7141100D01*
X-3331100Y-7141100D02*
X5431700Y-7141100D01*
X-8890000Y-15240000D02*
X-2820400Y-15240000D01*
X-2820400Y-15240000D02*
X3234500Y-9185100D01*
X957300Y-5200000D02*
X600000Y-5557300D01*
X3700000Y-5200000D02*
X957300Y-5200000D01*
M02*
