G04 #@! TF.GenerationSoftware,KiCad,Pcbnew,(5.1.9-0-10_14)*
G04 #@! TF.CreationDate,2021-07-10T20:46:14+09:00*
G04 #@! TF.ProjectId,EB-STM32L4P5CG,45422d53-544d-4333-924c-34503543472e,V1.0*
G04 #@! TF.SameCoordinates,Original*
G04 #@! TF.FileFunction,Soldermask,Bot*
G04 #@! TF.FilePolarity,Negative*
%FSLAX46Y46*%
G04 Gerber Fmt 4.6, Leading zero omitted, Abs format (unit mm)*
G04 Created by KiCad (PCBNEW (5.1.9-0-10_14)) date 2021-07-10 20:46:14*
%MOMM*%
%LPD*%
G01*
G04 APERTURE LIST*
%ADD10R,1.600000X1.600000*%
%ADD11C,0.750000*%
%ADD12C,1.400000*%
%ADD13R,1.400000X1.400000*%
%ADD14R,1.800000X1.900000*%
G04 APERTURE END LIST*
D10*
X8900000Y12200000D03*
X-8890000Y12200000D03*
D11*
X0Y-44400000D03*
X0Y-42600000D03*
D12*
X8890000Y-45720000D03*
X8890000Y-43180000D03*
X8890000Y-40640000D03*
X8890000Y-38100000D03*
X8890000Y-35560000D03*
X8890000Y-33020000D03*
D13*
X8890000Y0D03*
D12*
X8890000Y-2540000D03*
X8890000Y-5080000D03*
X8890000Y-7620000D03*
X8890000Y-10160000D03*
X8890000Y-12700000D03*
X8890000Y-15240000D03*
X8890000Y-17780000D03*
X8890000Y-20320000D03*
X8890000Y-22860000D03*
X8890000Y-25400000D03*
X8890000Y-27940000D03*
X8890000Y-30480000D03*
X-8890000Y-45720000D03*
X-8890000Y-43180000D03*
X-8890000Y-40640000D03*
X-8890000Y-38100000D03*
X-8890000Y-35560000D03*
X-8890000Y-33020000D03*
D13*
X-8890000Y0D03*
D12*
X-8890000Y-2540000D03*
X-8890000Y-5080000D03*
X-8890000Y-7620000D03*
X-8890000Y-10160000D03*
X-8890000Y-12700000D03*
X-8890000Y-15240000D03*
X-8890000Y-17780000D03*
X-8890000Y-20320000D03*
X-8890000Y-22860000D03*
X-8890000Y-25400000D03*
X-8890000Y-27940000D03*
X-8890000Y-30480000D03*
D14*
X-3250000Y12500000D03*
X3250000Y12500000D03*
M02*
