G04 #@! TF.GenerationSoftware,KiCad,Pcbnew,(5.1.9-0-10_14)*
G04 #@! TF.CreationDate,2021-07-10T20:46:14+09:00*
G04 #@! TF.ProjectId,EB-STM32L4P5CG,45422d53-544d-4333-924c-34503543472e,V1.0*
G04 #@! TF.SameCoordinates,Original*
G04 #@! TF.FileFunction,Legend,Top*
G04 #@! TF.FilePolarity,Positive*
%FSLAX46Y46*%
G04 Gerber Fmt 4.6, Leading zero omitted, Abs format (unit mm)*
G04 Created by KiCad (PCBNEW (5.1.9-0-10_14)) date 2021-07-10 20:46:14*
%MOMM*%
%LPD*%
G01*
G04 APERTURE LIST*
%ADD10C,0.120000*%
%ADD11C,0.150000*%
%ADD12C,0.200000*%
G04 APERTURE END LIST*
D10*
X-6894380Y-16617904D02*
X-7161047Y-16236952D01*
X-7351523Y-16617904D02*
X-7351523Y-15817904D01*
X-7046761Y-15817904D01*
X-6970571Y-15856000D01*
X-6932476Y-15894095D01*
X-6894380Y-15970285D01*
X-6894380Y-16084571D01*
X-6932476Y-16160761D01*
X-6970571Y-16198857D01*
X-7046761Y-16236952D01*
X-7351523Y-16236952D01*
X-6627714Y-15817904D02*
X-6094380Y-16617904D01*
X-6094380Y-15817904D02*
X-6627714Y-16617904D01*
X-7465809Y-13277904D02*
X-7008666Y-13277904D01*
X-7237238Y-14077904D02*
X-7237238Y-13277904D01*
X-6818190Y-13277904D02*
X-6284857Y-14077904D01*
X-6284857Y-13277904D02*
X-6818190Y-14077904D01*
D11*
X-5047619Y-37304761D02*
X-4904761Y-37352380D01*
X-4666666Y-37352380D01*
X-4571428Y-37304761D01*
X-4523809Y-37257142D01*
X-4476190Y-37161904D01*
X-4476190Y-37066666D01*
X-4523809Y-36971428D01*
X-4571428Y-36923809D01*
X-4666666Y-36876190D01*
X-4857142Y-36828571D01*
X-4952380Y-36780952D01*
X-5000000Y-36733333D01*
X-5047619Y-36638095D01*
X-5047619Y-36542857D01*
X-5000000Y-36447619D01*
X-4952380Y-36400000D01*
X-4857142Y-36352380D01*
X-4619047Y-36352380D01*
X-4476190Y-36400000D01*
X-4190476Y-36352380D02*
X-3619047Y-36352380D01*
X-3904761Y-37352380D02*
X-3904761Y-36352380D01*
X-3285714Y-37352380D02*
X-3285714Y-36352380D01*
X-2952380Y-37066666D01*
X-2619047Y-36352380D01*
X-2619047Y-37352380D01*
X-2238095Y-36352380D02*
X-1619047Y-36352380D01*
X-1952380Y-36733333D01*
X-1809523Y-36733333D01*
X-1714285Y-36780952D01*
X-1666666Y-36828571D01*
X-1619047Y-36923809D01*
X-1619047Y-37161904D01*
X-1666666Y-37257142D01*
X-1714285Y-37304761D01*
X-1809523Y-37352380D01*
X-2095238Y-37352380D01*
X-2190476Y-37304761D01*
X-2238095Y-37257142D01*
X-1238095Y-36447619D02*
X-1190476Y-36400000D01*
X-1095238Y-36352380D01*
X-857142Y-36352380D01*
X-761904Y-36400000D01*
X-714285Y-36447619D01*
X-666666Y-36542857D01*
X-666666Y-36638095D01*
X-714285Y-36780952D01*
X-1285714Y-37352380D01*
X-666666Y-37352380D01*
X238095Y-37352380D02*
X-238095Y-37352380D01*
X-238095Y-36352380D01*
X1000000Y-36685714D02*
X1000000Y-37352380D01*
X761904Y-36304761D02*
X523809Y-37019047D01*
X1142857Y-37019047D01*
X1523809Y-37352380D02*
X1523809Y-36352380D01*
X1904761Y-36352380D01*
X2000000Y-36400000D01*
X2047619Y-36447619D01*
X2095238Y-36542857D01*
X2095238Y-36685714D01*
X2047619Y-36780952D01*
X2000000Y-36828571D01*
X1904761Y-36876190D01*
X1523809Y-36876190D01*
X3000000Y-36352380D02*
X2523809Y-36352380D01*
X2476190Y-36828571D01*
X2523809Y-36780952D01*
X2619047Y-36733333D01*
X2857142Y-36733333D01*
X2952380Y-36780952D01*
X3000000Y-36828571D01*
X3047619Y-36923809D01*
X3047619Y-37161904D01*
X3000000Y-37257142D01*
X2952380Y-37304761D01*
X2857142Y-37352380D01*
X2619047Y-37352380D01*
X2523809Y-37304761D01*
X2476190Y-37257142D01*
X4047619Y-37257142D02*
X3999999Y-37304761D01*
X3857142Y-37352380D01*
X3761904Y-37352380D01*
X3619047Y-37304761D01*
X3523809Y-37209523D01*
X3476190Y-37114285D01*
X3428571Y-36923809D01*
X3428571Y-36780952D01*
X3476190Y-36590476D01*
X3523809Y-36495238D01*
X3619047Y-36400000D01*
X3761904Y-36352380D01*
X3857142Y-36352380D01*
X3999999Y-36400000D01*
X4047619Y-36447619D01*
X4999999Y-36400000D02*
X4904761Y-36352380D01*
X4761904Y-36352380D01*
X4619047Y-36400000D01*
X4523809Y-36495238D01*
X4476190Y-36590476D01*
X4428571Y-36780952D01*
X4428571Y-36923809D01*
X4476190Y-37114285D01*
X4523809Y-37209523D01*
X4619047Y-37304761D01*
X4761904Y-37352380D01*
X4857142Y-37352380D01*
X4999999Y-37304761D01*
X5047619Y-37257142D01*
X5047619Y-36923809D01*
X4857142Y-36923809D01*
D10*
X-2133333Y-46261904D02*
X-2400000Y-45880952D01*
X-2590476Y-46261904D02*
X-2590476Y-45461904D01*
X-2285714Y-45461904D01*
X-2209523Y-45500000D01*
X-2171428Y-45538095D01*
X-2133333Y-45614285D01*
X-2133333Y-45728571D01*
X-2171428Y-45804761D01*
X-2209523Y-45842857D01*
X-2285714Y-45880952D01*
X-2590476Y-45880952D01*
X-1485714Y-46223809D02*
X-1561904Y-46261904D01*
X-1714285Y-46261904D01*
X-1790476Y-46223809D01*
X-1828571Y-46147619D01*
X-1828571Y-45842857D01*
X-1790476Y-45766666D01*
X-1714285Y-45728571D01*
X-1561904Y-45728571D01*
X-1485714Y-45766666D01*
X-1447619Y-45842857D01*
X-1447619Y-45919047D01*
X-1828571Y-45995238D01*
X-1142857Y-46223809D02*
X-1066666Y-46261904D01*
X-914285Y-46261904D01*
X-838095Y-46223809D01*
X-800000Y-46147619D01*
X-800000Y-46109523D01*
X-838095Y-46033333D01*
X-914285Y-45995238D01*
X-1028571Y-45995238D01*
X-1104761Y-45957142D01*
X-1142857Y-45880952D01*
X-1142857Y-45842857D01*
X-1104761Y-45766666D01*
X-1028571Y-45728571D01*
X-914285Y-45728571D01*
X-838095Y-45766666D01*
X-152380Y-46223809D02*
X-228571Y-46261904D01*
X-380952Y-46261904D01*
X-457142Y-46223809D01*
X-495238Y-46147619D01*
X-495238Y-45842857D01*
X-457142Y-45766666D01*
X-380952Y-45728571D01*
X-228571Y-45728571D01*
X-152380Y-45766666D01*
X-114285Y-45842857D01*
X-114285Y-45919047D01*
X-495238Y-45995238D01*
X114285Y-45728571D02*
X419047Y-45728571D01*
X228571Y-45461904D02*
X228571Y-46147619D01*
X266666Y-46223809D01*
X342857Y-46261904D01*
X419047Y-46261904D01*
X1257142Y-46223809D02*
X1371428Y-46261904D01*
X1561904Y-46261904D01*
X1638095Y-46223809D01*
X1676190Y-46185714D01*
X1714285Y-46109523D01*
X1714285Y-46033333D01*
X1676190Y-45957142D01*
X1638095Y-45919047D01*
X1561904Y-45880952D01*
X1409523Y-45842857D01*
X1333333Y-45804761D01*
X1295238Y-45766666D01*
X1257142Y-45690476D01*
X1257142Y-45614285D01*
X1295238Y-45538095D01*
X1333333Y-45500000D01*
X1409523Y-45461904D01*
X1599999Y-45461904D01*
X1714285Y-45500000D01*
X1980952Y-45461904D02*
X2171428Y-46261904D01*
X2323809Y-45690476D01*
X2476190Y-46261904D01*
X2666666Y-45461904D01*
X-2914285Y7738095D02*
X-2914285Y8538095D01*
X-2647619Y7966666D01*
X-2380952Y8538095D01*
X-2380952Y7738095D01*
X-2000000Y7738095D02*
X-2000000Y8271428D01*
X-2000000Y8538095D02*
X-2038095Y8500000D01*
X-2000000Y8461904D01*
X-1961904Y8500000D01*
X-2000000Y8538095D01*
X-2000000Y8461904D01*
X-1276190Y7776190D02*
X-1352380Y7738095D01*
X-1504761Y7738095D01*
X-1580952Y7776190D01*
X-1619047Y7814285D01*
X-1657142Y7890476D01*
X-1657142Y8119047D01*
X-1619047Y8195238D01*
X-1580952Y8233333D01*
X-1504761Y8271428D01*
X-1352380Y8271428D01*
X-1276190Y8233333D01*
X-933333Y7738095D02*
X-933333Y8271428D01*
X-933333Y8119047D02*
X-895238Y8195238D01*
X-857142Y8233333D01*
X-780952Y8271428D01*
X-704761Y8271428D01*
X-323809Y7738095D02*
X-400000Y7776190D01*
X-438095Y7814285D01*
X-476190Y7890476D01*
X-476190Y8119047D01*
X-438095Y8195238D01*
X-400000Y8233333D01*
X-323809Y8271428D01*
X-209523Y8271428D01*
X-133333Y8233333D01*
X-95238Y8195238D01*
X-57142Y8119047D01*
X-57142Y7890476D01*
X-95238Y7814285D01*
X-133333Y7776190D01*
X-209523Y7738095D01*
X-323809Y7738095D01*
X895238Y8538095D02*
X895238Y7890476D01*
X933333Y7814285D01*
X971428Y7776190D01*
X1047619Y7738095D01*
X1200000Y7738095D01*
X1276190Y7776190D01*
X1314285Y7814285D01*
X1352380Y7890476D01*
X1352380Y8538095D01*
X1695238Y7776190D02*
X1809523Y7738095D01*
X2000000Y7738095D01*
X2076190Y7776190D01*
X2114285Y7814285D01*
X2152380Y7890476D01*
X2152380Y7966666D01*
X2114285Y8042857D01*
X2076190Y8080952D01*
X2000000Y8119047D01*
X1847619Y8157142D01*
X1771428Y8195238D01*
X1733333Y8233333D01*
X1695238Y8309523D01*
X1695238Y8385714D01*
X1733333Y8461904D01*
X1771428Y8500000D01*
X1847619Y8538095D01*
X2038095Y8538095D01*
X2152380Y8500000D01*
X2761904Y8157142D02*
X2876190Y8119047D01*
X2914285Y8080952D01*
X2952380Y8004761D01*
X2952380Y7890476D01*
X2914285Y7814285D01*
X2876190Y7776190D01*
X2800000Y7738095D01*
X2495238Y7738095D01*
X2495238Y8538095D01*
X2761904Y8538095D01*
X2838095Y8500000D01*
X2876190Y8461904D01*
X2914285Y8385714D01*
X2914285Y8309523D01*
X2876190Y8233333D01*
X2838095Y8195238D01*
X2761904Y8157142D01*
X2495238Y8157142D01*
X-1638095Y-261904D02*
X-1638095Y538095D01*
X-1447619Y538095D01*
X-1333333Y500000D01*
X-1257142Y423809D01*
X-1219047Y347619D01*
X-1180952Y195238D01*
X-1180952Y80952D01*
X-1219047Y-71428D01*
X-1257142Y-147619D01*
X-1333333Y-223809D01*
X-1447619Y-261904D01*
X-1638095Y-261904D01*
X-533333Y-223809D02*
X-609523Y-261904D01*
X-761904Y-261904D01*
X-838095Y-223809D01*
X-876190Y-147619D01*
X-876190Y157142D01*
X-838095Y233333D01*
X-761904Y271428D01*
X-609523Y271428D01*
X-533333Y233333D01*
X-495238Y157142D01*
X-495238Y80952D01*
X-876190Y4761D01*
X-152380Y-261904D02*
X-152380Y538095D01*
X-152380Y233333D02*
X-76190Y271428D01*
X76190Y271428D01*
X152380Y233333D01*
X190476Y195238D01*
X228571Y119047D01*
X228571Y-109523D01*
X190476Y-185714D01*
X152380Y-223809D01*
X76190Y-261904D01*
X-76190Y-261904D01*
X-152380Y-223809D01*
X914285Y271428D02*
X914285Y-261904D01*
X571428Y271428D02*
X571428Y-147619D01*
X609523Y-223809D01*
X685714Y-261904D01*
X799999Y-261904D01*
X876190Y-223809D01*
X914285Y-185714D01*
X1638095Y271428D02*
X1638095Y-376190D01*
X1599999Y-452380D01*
X1561904Y-490476D01*
X1485714Y-528571D01*
X1371428Y-528571D01*
X1295238Y-490476D01*
X1638095Y-223809D02*
X1561904Y-261904D01*
X1409523Y-261904D01*
X1333333Y-223809D01*
X1295238Y-185714D01*
X1257142Y-109523D01*
X1257142Y119047D01*
X1295238Y195238D01*
X1333333Y233333D01*
X1409523Y271428D01*
X1561904Y271428D01*
X1638095Y233333D01*
X7173809Y438095D02*
X6792857Y438095D01*
X6754761Y57142D01*
X6792857Y95238D01*
X6869047Y133333D01*
X7059523Y133333D01*
X7135714Y95238D01*
X7173809Y57142D01*
X7211904Y-19047D01*
X7211904Y-209523D01*
X7173809Y-285714D01*
X7135714Y-323809D01*
X7059523Y-361904D01*
X6869047Y-361904D01*
X6792857Y-323809D01*
X6754761Y-285714D01*
X7440476Y438095D02*
X7707142Y-361904D01*
X7973809Y438095D01*
X5573809Y-2101904D02*
X6069047Y-2101904D01*
X5802380Y-2406666D01*
X5916666Y-2406666D01*
X5992857Y-2444761D01*
X6030952Y-2482857D01*
X6069047Y-2559047D01*
X6069047Y-2749523D01*
X6030952Y-2825714D01*
X5992857Y-2863809D01*
X5916666Y-2901904D01*
X5688095Y-2901904D01*
X5611904Y-2863809D01*
X5573809Y-2825714D01*
X6411904Y-2825714D02*
X6450000Y-2863809D01*
X6411904Y-2901904D01*
X6373809Y-2863809D01*
X6411904Y-2825714D01*
X6411904Y-2901904D01*
X6716666Y-2101904D02*
X7211904Y-2101904D01*
X6945238Y-2406666D01*
X7059523Y-2406666D01*
X7135714Y-2444761D01*
X7173809Y-2482857D01*
X7211904Y-2559047D01*
X7211904Y-2749523D01*
X7173809Y-2825714D01*
X7135714Y-2863809D01*
X7059523Y-2901904D01*
X6830952Y-2901904D01*
X6754761Y-2863809D01*
X6716666Y-2825714D01*
X7440476Y-2101904D02*
X7707142Y-2901904D01*
X7973809Y-2101904D01*
X6221428Y-4680000D02*
X6145238Y-4641904D01*
X6030952Y-4641904D01*
X5916666Y-4680000D01*
X5840476Y-4756190D01*
X5802380Y-4832380D01*
X5764285Y-4984761D01*
X5764285Y-5099047D01*
X5802380Y-5251428D01*
X5840476Y-5327619D01*
X5916666Y-5403809D01*
X6030952Y-5441904D01*
X6107142Y-5441904D01*
X6221428Y-5403809D01*
X6259523Y-5365714D01*
X6259523Y-5099047D01*
X6107142Y-5099047D01*
X6602380Y-5441904D02*
X6602380Y-4641904D01*
X7059523Y-5441904D01*
X7059523Y-4641904D01*
X7440476Y-5441904D02*
X7440476Y-4641904D01*
X7630952Y-4641904D01*
X7745238Y-4680000D01*
X7821428Y-4756190D01*
X7859523Y-4832380D01*
X7897619Y-4984761D01*
X7897619Y-5099047D01*
X7859523Y-5251428D01*
X7821428Y-5327619D01*
X7745238Y-5403809D01*
X7630952Y-5441904D01*
X7440476Y-5441904D01*
X5116666Y-7981904D02*
X5116666Y-7181904D01*
X5421428Y-7181904D01*
X5497619Y-7220000D01*
X5535714Y-7258095D01*
X5573809Y-7334285D01*
X5573809Y-7448571D01*
X5535714Y-7524761D01*
X5497619Y-7562857D01*
X5421428Y-7600952D01*
X5116666Y-7600952D01*
X6373809Y-7905714D02*
X6335714Y-7943809D01*
X6221428Y-7981904D01*
X6145238Y-7981904D01*
X6030952Y-7943809D01*
X5954761Y-7867619D01*
X5916666Y-7791428D01*
X5878571Y-7639047D01*
X5878571Y-7524761D01*
X5916666Y-7372380D01*
X5954761Y-7296190D01*
X6030952Y-7220000D01*
X6145238Y-7181904D01*
X6221428Y-7181904D01*
X6335714Y-7220000D01*
X6373809Y-7258095D01*
X7135714Y-7981904D02*
X6678571Y-7981904D01*
X6907142Y-7981904D02*
X6907142Y-7181904D01*
X6830952Y-7296190D01*
X6754761Y-7372380D01*
X6678571Y-7410476D01*
X7402380Y-7181904D02*
X7897619Y-7181904D01*
X7630952Y-7486666D01*
X7745238Y-7486666D01*
X7821428Y-7524761D01*
X7859523Y-7562857D01*
X7897619Y-7639047D01*
X7897619Y-7829523D01*
X7859523Y-7905714D01*
X7821428Y-7943809D01*
X7745238Y-7981904D01*
X7516666Y-7981904D01*
X7440476Y-7943809D01*
X7402380Y-7905714D01*
X5878571Y-10521904D02*
X5878571Y-9721904D01*
X6183333Y-9721904D01*
X6259523Y-9760000D01*
X6297619Y-9798095D01*
X6335714Y-9874285D01*
X6335714Y-9988571D01*
X6297619Y-10064761D01*
X6259523Y-10102857D01*
X6183333Y-10140952D01*
X5878571Y-10140952D01*
X6945238Y-10102857D02*
X7059523Y-10140952D01*
X7097619Y-10179047D01*
X7135714Y-10255238D01*
X7135714Y-10369523D01*
X7097619Y-10445714D01*
X7059523Y-10483809D01*
X6983333Y-10521904D01*
X6678571Y-10521904D01*
X6678571Y-9721904D01*
X6945238Y-9721904D01*
X7021428Y-9760000D01*
X7059523Y-9798095D01*
X7097619Y-9874285D01*
X7097619Y-9950476D01*
X7059523Y-10026666D01*
X7021428Y-10064761D01*
X6945238Y-10102857D01*
X6678571Y-10102857D01*
X7516666Y-10521904D02*
X7669047Y-10521904D01*
X7745238Y-10483809D01*
X7783333Y-10445714D01*
X7859523Y-10331428D01*
X7897619Y-10179047D01*
X7897619Y-9874285D01*
X7859523Y-9798095D01*
X7821428Y-9760000D01*
X7745238Y-9721904D01*
X7592857Y-9721904D01*
X7516666Y-9760000D01*
X7478571Y-9798095D01*
X7440476Y-9874285D01*
X7440476Y-10064761D01*
X7478571Y-10140952D01*
X7516666Y-10179047D01*
X7592857Y-10217142D01*
X7745238Y-10217142D01*
X7821428Y-10179047D01*
X7859523Y-10140952D01*
X7897619Y-10064761D01*
X5878571Y-13061904D02*
X5878571Y-12261904D01*
X6183333Y-12261904D01*
X6259523Y-12300000D01*
X6297619Y-12338095D01*
X6335714Y-12414285D01*
X6335714Y-12528571D01*
X6297619Y-12604761D01*
X6259523Y-12642857D01*
X6183333Y-12680952D01*
X5878571Y-12680952D01*
X6945238Y-12642857D02*
X7059523Y-12680952D01*
X7097619Y-12719047D01*
X7135714Y-12795238D01*
X7135714Y-12909523D01*
X7097619Y-12985714D01*
X7059523Y-13023809D01*
X6983333Y-13061904D01*
X6678571Y-13061904D01*
X6678571Y-12261904D01*
X6945238Y-12261904D01*
X7021428Y-12300000D01*
X7059523Y-12338095D01*
X7097619Y-12414285D01*
X7097619Y-12490476D01*
X7059523Y-12566666D01*
X7021428Y-12604761D01*
X6945238Y-12642857D01*
X6678571Y-12642857D01*
X7592857Y-12604761D02*
X7516666Y-12566666D01*
X7478571Y-12528571D01*
X7440476Y-12452380D01*
X7440476Y-12414285D01*
X7478571Y-12338095D01*
X7516666Y-12300000D01*
X7592857Y-12261904D01*
X7745238Y-12261904D01*
X7821428Y-12300000D01*
X7859523Y-12338095D01*
X7897619Y-12414285D01*
X7897619Y-12452380D01*
X7859523Y-12528571D01*
X7821428Y-12566666D01*
X7745238Y-12604761D01*
X7592857Y-12604761D01*
X7516666Y-12642857D01*
X7478571Y-12680952D01*
X7440476Y-12757142D01*
X7440476Y-12909523D01*
X7478571Y-12985714D01*
X7516666Y-13023809D01*
X7592857Y-13061904D01*
X7745238Y-13061904D01*
X7821428Y-13023809D01*
X7859523Y-12985714D01*
X7897619Y-12909523D01*
X7897619Y-12757142D01*
X7859523Y-12680952D01*
X7821428Y-12642857D01*
X7745238Y-12604761D01*
X5840476Y-15601904D02*
X5840476Y-14801904D01*
X6145238Y-14801904D01*
X6221428Y-14840000D01*
X6259523Y-14878095D01*
X6297619Y-14954285D01*
X6297619Y-15068571D01*
X6259523Y-15144761D01*
X6221428Y-15182857D01*
X6145238Y-15220952D01*
X5840476Y-15220952D01*
X6640476Y-15601904D02*
X6640476Y-14801904D01*
X6640476Y-15182857D02*
X7097619Y-15182857D01*
X7097619Y-15601904D02*
X7097619Y-14801904D01*
X7402380Y-14801904D02*
X7897619Y-14801904D01*
X7630952Y-15106666D01*
X7745238Y-15106666D01*
X7821428Y-15144761D01*
X7859523Y-15182857D01*
X7897619Y-15259047D01*
X7897619Y-15449523D01*
X7859523Y-15525714D01*
X7821428Y-15563809D01*
X7745238Y-15601904D01*
X7516666Y-15601904D01*
X7440476Y-15563809D01*
X7402380Y-15525714D01*
X5878571Y-18141904D02*
X5878571Y-17341904D01*
X6183333Y-17341904D01*
X6259523Y-17380000D01*
X6297619Y-17418095D01*
X6335714Y-17494285D01*
X6335714Y-17608571D01*
X6297619Y-17684761D01*
X6259523Y-17722857D01*
X6183333Y-17760952D01*
X5878571Y-17760952D01*
X6945238Y-17722857D02*
X7059523Y-17760952D01*
X7097619Y-17799047D01*
X7135714Y-17875238D01*
X7135714Y-17989523D01*
X7097619Y-18065714D01*
X7059523Y-18103809D01*
X6983333Y-18141904D01*
X6678571Y-18141904D01*
X6678571Y-17341904D01*
X6945238Y-17341904D01*
X7021428Y-17380000D01*
X7059523Y-17418095D01*
X7097619Y-17494285D01*
X7097619Y-17570476D01*
X7059523Y-17646666D01*
X7021428Y-17684761D01*
X6945238Y-17722857D01*
X6678571Y-17722857D01*
X7402380Y-17341904D02*
X7935714Y-17341904D01*
X7592857Y-18141904D01*
X5878571Y-20681904D02*
X5878571Y-19881904D01*
X6183333Y-19881904D01*
X6259523Y-19920000D01*
X6297619Y-19958095D01*
X6335714Y-20034285D01*
X6335714Y-20148571D01*
X6297619Y-20224761D01*
X6259523Y-20262857D01*
X6183333Y-20300952D01*
X5878571Y-20300952D01*
X6945238Y-20262857D02*
X7059523Y-20300952D01*
X7097619Y-20339047D01*
X7135714Y-20415238D01*
X7135714Y-20529523D01*
X7097619Y-20605714D01*
X7059523Y-20643809D01*
X6983333Y-20681904D01*
X6678571Y-20681904D01*
X6678571Y-19881904D01*
X6945238Y-19881904D01*
X7021428Y-19920000D01*
X7059523Y-19958095D01*
X7097619Y-20034285D01*
X7097619Y-20110476D01*
X7059523Y-20186666D01*
X7021428Y-20224761D01*
X6945238Y-20262857D01*
X6678571Y-20262857D01*
X7821428Y-19881904D02*
X7669047Y-19881904D01*
X7592857Y-19920000D01*
X7554761Y-19958095D01*
X7478571Y-20072380D01*
X7440476Y-20224761D01*
X7440476Y-20529523D01*
X7478571Y-20605714D01*
X7516666Y-20643809D01*
X7592857Y-20681904D01*
X7745238Y-20681904D01*
X7821428Y-20643809D01*
X7859523Y-20605714D01*
X7897619Y-20529523D01*
X7897619Y-20339047D01*
X7859523Y-20262857D01*
X7821428Y-20224761D01*
X7745238Y-20186666D01*
X7592857Y-20186666D01*
X7516666Y-20224761D01*
X7478571Y-20262857D01*
X7440476Y-20339047D01*
X5878571Y-23221904D02*
X5878571Y-22421904D01*
X6183333Y-22421904D01*
X6259523Y-22460000D01*
X6297619Y-22498095D01*
X6335714Y-22574285D01*
X6335714Y-22688571D01*
X6297619Y-22764761D01*
X6259523Y-22802857D01*
X6183333Y-22840952D01*
X5878571Y-22840952D01*
X6945238Y-22802857D02*
X7059523Y-22840952D01*
X7097619Y-22879047D01*
X7135714Y-22955238D01*
X7135714Y-23069523D01*
X7097619Y-23145714D01*
X7059523Y-23183809D01*
X6983333Y-23221904D01*
X6678571Y-23221904D01*
X6678571Y-22421904D01*
X6945238Y-22421904D01*
X7021428Y-22460000D01*
X7059523Y-22498095D01*
X7097619Y-22574285D01*
X7097619Y-22650476D01*
X7059523Y-22726666D01*
X7021428Y-22764761D01*
X6945238Y-22802857D01*
X6678571Y-22802857D01*
X7859523Y-22421904D02*
X7478571Y-22421904D01*
X7440476Y-22802857D01*
X7478571Y-22764761D01*
X7554761Y-22726666D01*
X7745238Y-22726666D01*
X7821428Y-22764761D01*
X7859523Y-22802857D01*
X7897619Y-22879047D01*
X7897619Y-23069523D01*
X7859523Y-23145714D01*
X7821428Y-23183809D01*
X7745238Y-23221904D01*
X7554761Y-23221904D01*
X7478571Y-23183809D01*
X7440476Y-23145714D01*
X5878571Y-25761904D02*
X5878571Y-24961904D01*
X6183333Y-24961904D01*
X6259523Y-25000000D01*
X6297619Y-25038095D01*
X6335714Y-25114285D01*
X6335714Y-25228571D01*
X6297619Y-25304761D01*
X6259523Y-25342857D01*
X6183333Y-25380952D01*
X5878571Y-25380952D01*
X6945238Y-25342857D02*
X7059523Y-25380952D01*
X7097619Y-25419047D01*
X7135714Y-25495238D01*
X7135714Y-25609523D01*
X7097619Y-25685714D01*
X7059523Y-25723809D01*
X6983333Y-25761904D01*
X6678571Y-25761904D01*
X6678571Y-24961904D01*
X6945238Y-24961904D01*
X7021428Y-25000000D01*
X7059523Y-25038095D01*
X7097619Y-25114285D01*
X7097619Y-25190476D01*
X7059523Y-25266666D01*
X7021428Y-25304761D01*
X6945238Y-25342857D01*
X6678571Y-25342857D01*
X7821428Y-25228571D02*
X7821428Y-25761904D01*
X7630952Y-24923809D02*
X7440476Y-25495238D01*
X7935714Y-25495238D01*
X5878571Y-28301904D02*
X5878571Y-27501904D01*
X6183333Y-27501904D01*
X6259523Y-27540000D01*
X6297619Y-27578095D01*
X6335714Y-27654285D01*
X6335714Y-27768571D01*
X6297619Y-27844761D01*
X6259523Y-27882857D01*
X6183333Y-27920952D01*
X5878571Y-27920952D01*
X6945238Y-27882857D02*
X7059523Y-27920952D01*
X7097619Y-27959047D01*
X7135714Y-28035238D01*
X7135714Y-28149523D01*
X7097619Y-28225714D01*
X7059523Y-28263809D01*
X6983333Y-28301904D01*
X6678571Y-28301904D01*
X6678571Y-27501904D01*
X6945238Y-27501904D01*
X7021428Y-27540000D01*
X7059523Y-27578095D01*
X7097619Y-27654285D01*
X7097619Y-27730476D01*
X7059523Y-27806666D01*
X7021428Y-27844761D01*
X6945238Y-27882857D01*
X6678571Y-27882857D01*
X7402380Y-27501904D02*
X7897619Y-27501904D01*
X7630952Y-27806666D01*
X7745238Y-27806666D01*
X7821428Y-27844761D01*
X7859523Y-27882857D01*
X7897619Y-27959047D01*
X7897619Y-28149523D01*
X7859523Y-28225714D01*
X7821428Y-28263809D01*
X7745238Y-28301904D01*
X7516666Y-28301904D01*
X7440476Y-28263809D01*
X7402380Y-28225714D01*
X5230952Y-30841904D02*
X5230952Y-30041904D01*
X5535714Y-30041904D01*
X5611904Y-30080000D01*
X5650000Y-30118095D01*
X5688095Y-30194285D01*
X5688095Y-30308571D01*
X5650000Y-30384761D01*
X5611904Y-30422857D01*
X5535714Y-30460952D01*
X5230952Y-30460952D01*
X5992857Y-30613333D02*
X6373809Y-30613333D01*
X5916666Y-30841904D02*
X6183333Y-30041904D01*
X6450000Y-30841904D01*
X7135714Y-30841904D02*
X6678571Y-30841904D01*
X6907142Y-30841904D02*
X6907142Y-30041904D01*
X6830952Y-30156190D01*
X6754761Y-30232380D01*
X6678571Y-30270476D01*
X7859523Y-30041904D02*
X7478571Y-30041904D01*
X7440476Y-30422857D01*
X7478571Y-30384761D01*
X7554761Y-30346666D01*
X7745238Y-30346666D01*
X7821428Y-30384761D01*
X7859523Y-30422857D01*
X7897619Y-30499047D01*
X7897619Y-30689523D01*
X7859523Y-30765714D01*
X7821428Y-30803809D01*
X7745238Y-30841904D01*
X7554761Y-30841904D01*
X7478571Y-30803809D01*
X7440476Y-30765714D01*
X5230952Y-33381904D02*
X5230952Y-32581904D01*
X5535714Y-32581904D01*
X5611904Y-32620000D01*
X5650000Y-32658095D01*
X5688095Y-32734285D01*
X5688095Y-32848571D01*
X5650000Y-32924761D01*
X5611904Y-32962857D01*
X5535714Y-33000952D01*
X5230952Y-33000952D01*
X5992857Y-33153333D02*
X6373809Y-33153333D01*
X5916666Y-33381904D02*
X6183333Y-32581904D01*
X6450000Y-33381904D01*
X7135714Y-33381904D02*
X6678571Y-33381904D01*
X6907142Y-33381904D02*
X6907142Y-32581904D01*
X6830952Y-32696190D01*
X6754761Y-32772380D01*
X6678571Y-32810476D01*
X7440476Y-32658095D02*
X7478571Y-32620000D01*
X7554761Y-32581904D01*
X7745238Y-32581904D01*
X7821428Y-32620000D01*
X7859523Y-32658095D01*
X7897619Y-32734285D01*
X7897619Y-32810476D01*
X7859523Y-32924761D01*
X7402380Y-33381904D01*
X7897619Y-33381904D01*
X5230952Y-35921904D02*
X5230952Y-35121904D01*
X5535714Y-35121904D01*
X5611904Y-35160000D01*
X5650000Y-35198095D01*
X5688095Y-35274285D01*
X5688095Y-35388571D01*
X5650000Y-35464761D01*
X5611904Y-35502857D01*
X5535714Y-35540952D01*
X5230952Y-35540952D01*
X5992857Y-35693333D02*
X6373809Y-35693333D01*
X5916666Y-35921904D02*
X6183333Y-35121904D01*
X6450000Y-35921904D01*
X7135714Y-35921904D02*
X6678571Y-35921904D01*
X6907142Y-35921904D02*
X6907142Y-35121904D01*
X6830952Y-35236190D01*
X6754761Y-35312380D01*
X6678571Y-35350476D01*
X7897619Y-35921904D02*
X7440476Y-35921904D01*
X7669047Y-35921904D02*
X7669047Y-35121904D01*
X7592857Y-35236190D01*
X7516666Y-35312380D01*
X7440476Y-35350476D01*
X5230952Y-38461904D02*
X5230952Y-37661904D01*
X5535714Y-37661904D01*
X5611904Y-37700000D01*
X5650000Y-37738095D01*
X5688095Y-37814285D01*
X5688095Y-37928571D01*
X5650000Y-38004761D01*
X5611904Y-38042857D01*
X5535714Y-38080952D01*
X5230952Y-38080952D01*
X5992857Y-38233333D02*
X6373809Y-38233333D01*
X5916666Y-38461904D02*
X6183333Y-37661904D01*
X6450000Y-38461904D01*
X7135714Y-38461904D02*
X6678571Y-38461904D01*
X6907142Y-38461904D02*
X6907142Y-37661904D01*
X6830952Y-37776190D01*
X6754761Y-37852380D01*
X6678571Y-37890476D01*
X7630952Y-37661904D02*
X7707142Y-37661904D01*
X7783333Y-37700000D01*
X7821428Y-37738095D01*
X7859523Y-37814285D01*
X7897619Y-37966666D01*
X7897619Y-38157142D01*
X7859523Y-38309523D01*
X7821428Y-38385714D01*
X7783333Y-38423809D01*
X7707142Y-38461904D01*
X7630952Y-38461904D01*
X7554761Y-38423809D01*
X7516666Y-38385714D01*
X7478571Y-38309523D01*
X7440476Y-38157142D01*
X7440476Y-37966666D01*
X7478571Y-37814285D01*
X7516666Y-37738095D01*
X7554761Y-37700000D01*
X7630952Y-37661904D01*
X5992857Y-41001904D02*
X5992857Y-40201904D01*
X6297619Y-40201904D01*
X6373809Y-40240000D01*
X6411904Y-40278095D01*
X6450000Y-40354285D01*
X6450000Y-40468571D01*
X6411904Y-40544761D01*
X6373809Y-40582857D01*
X6297619Y-40620952D01*
X5992857Y-40620952D01*
X6754761Y-40773333D02*
X7135714Y-40773333D01*
X6678571Y-41001904D02*
X6945238Y-40201904D01*
X7211904Y-41001904D01*
X7516666Y-41001904D02*
X7669047Y-41001904D01*
X7745238Y-40963809D01*
X7783333Y-40925714D01*
X7859523Y-40811428D01*
X7897619Y-40659047D01*
X7897619Y-40354285D01*
X7859523Y-40278095D01*
X7821428Y-40240000D01*
X7745238Y-40201904D01*
X7592857Y-40201904D01*
X7516666Y-40240000D01*
X7478571Y-40278095D01*
X7440476Y-40354285D01*
X7440476Y-40544761D01*
X7478571Y-40620952D01*
X7516666Y-40659047D01*
X7592857Y-40697142D01*
X7745238Y-40697142D01*
X7821428Y-40659047D01*
X7859523Y-40620952D01*
X7897619Y-40544761D01*
X5992857Y-43541904D02*
X5992857Y-42741904D01*
X6297619Y-42741904D01*
X6373809Y-42780000D01*
X6411904Y-42818095D01*
X6450000Y-42894285D01*
X6450000Y-43008571D01*
X6411904Y-43084761D01*
X6373809Y-43122857D01*
X6297619Y-43160952D01*
X5992857Y-43160952D01*
X6754761Y-43313333D02*
X7135714Y-43313333D01*
X6678571Y-43541904D02*
X6945238Y-42741904D01*
X7211904Y-43541904D01*
X7592857Y-43084761D02*
X7516666Y-43046666D01*
X7478571Y-43008571D01*
X7440476Y-42932380D01*
X7440476Y-42894285D01*
X7478571Y-42818095D01*
X7516666Y-42780000D01*
X7592857Y-42741904D01*
X7745238Y-42741904D01*
X7821428Y-42780000D01*
X7859523Y-42818095D01*
X7897619Y-42894285D01*
X7897619Y-42932380D01*
X7859523Y-43008571D01*
X7821428Y-43046666D01*
X7745238Y-43084761D01*
X7592857Y-43084761D01*
X7516666Y-43122857D01*
X7478571Y-43160952D01*
X7440476Y-43237142D01*
X7440476Y-43389523D01*
X7478571Y-43465714D01*
X7516666Y-43503809D01*
X7592857Y-43541904D01*
X7745238Y-43541904D01*
X7821428Y-43503809D01*
X7859523Y-43465714D01*
X7897619Y-43389523D01*
X7897619Y-43237142D01*
X7859523Y-43160952D01*
X7821428Y-43122857D01*
X7745238Y-43084761D01*
X5116666Y-46081904D02*
X5116666Y-45281904D01*
X5421428Y-45281904D01*
X5497619Y-45320000D01*
X5535714Y-45358095D01*
X5573809Y-45434285D01*
X5573809Y-45548571D01*
X5535714Y-45624761D01*
X5497619Y-45662857D01*
X5421428Y-45700952D01*
X5116666Y-45700952D01*
X6183333Y-45662857D02*
X6297619Y-45700952D01*
X6335714Y-45739047D01*
X6373809Y-45815238D01*
X6373809Y-45929523D01*
X6335714Y-46005714D01*
X6297619Y-46043809D01*
X6221428Y-46081904D01*
X5916666Y-46081904D01*
X5916666Y-45281904D01*
X6183333Y-45281904D01*
X6259523Y-45320000D01*
X6297619Y-45358095D01*
X6335714Y-45434285D01*
X6335714Y-45510476D01*
X6297619Y-45586666D01*
X6259523Y-45624761D01*
X6183333Y-45662857D01*
X5916666Y-45662857D01*
X7135714Y-46081904D02*
X6678571Y-46081904D01*
X6907142Y-46081904D02*
X6907142Y-45281904D01*
X6830952Y-45396190D01*
X6754761Y-45472380D01*
X6678571Y-45510476D01*
X7859523Y-45281904D02*
X7478571Y-45281904D01*
X7440476Y-45662857D01*
X7478571Y-45624761D01*
X7554761Y-45586666D01*
X7745238Y-45586666D01*
X7821428Y-45624761D01*
X7859523Y-45662857D01*
X7897619Y-45739047D01*
X7897619Y-45929523D01*
X7859523Y-46005714D01*
X7821428Y-46043809D01*
X7745238Y-46081904D01*
X7554761Y-46081904D01*
X7478571Y-46043809D01*
X7440476Y-46005714D01*
X-7859523Y-46081904D02*
X-7859523Y-45281904D01*
X-7554761Y-45281904D01*
X-7478571Y-45320000D01*
X-7440476Y-45358095D01*
X-7402380Y-45434285D01*
X-7402380Y-45548571D01*
X-7440476Y-45624761D01*
X-7478571Y-45662857D01*
X-7554761Y-45700952D01*
X-7859523Y-45700952D01*
X-6792857Y-45662857D02*
X-6678571Y-45700952D01*
X-6640476Y-45739047D01*
X-6602380Y-45815238D01*
X-6602380Y-45929523D01*
X-6640476Y-46005714D01*
X-6678571Y-46043809D01*
X-6754761Y-46081904D01*
X-7059523Y-46081904D01*
X-7059523Y-45281904D01*
X-6792857Y-45281904D01*
X-6716666Y-45320000D01*
X-6678571Y-45358095D01*
X-6640476Y-45434285D01*
X-6640476Y-45510476D01*
X-6678571Y-45586666D01*
X-6716666Y-45624761D01*
X-6792857Y-45662857D01*
X-7059523Y-45662857D01*
X-5840476Y-46081904D02*
X-6297619Y-46081904D01*
X-6069047Y-46081904D02*
X-6069047Y-45281904D01*
X-6145238Y-45396190D01*
X-6221428Y-45472380D01*
X-6297619Y-45510476D01*
X-5154761Y-45548571D02*
X-5154761Y-46081904D01*
X-5345238Y-45243809D02*
X-5535714Y-45815238D01*
X-5040476Y-45815238D01*
X-7859523Y-43541904D02*
X-7859523Y-42741904D01*
X-7554761Y-42741904D01*
X-7478571Y-42780000D01*
X-7440476Y-42818095D01*
X-7402380Y-42894285D01*
X-7402380Y-43008571D01*
X-7440476Y-43084761D01*
X-7478571Y-43122857D01*
X-7554761Y-43160952D01*
X-7859523Y-43160952D01*
X-6792857Y-43122857D02*
X-6678571Y-43160952D01*
X-6640476Y-43199047D01*
X-6602380Y-43275238D01*
X-6602380Y-43389523D01*
X-6640476Y-43465714D01*
X-6678571Y-43503809D01*
X-6754761Y-43541904D01*
X-7059523Y-43541904D01*
X-7059523Y-42741904D01*
X-6792857Y-42741904D01*
X-6716666Y-42780000D01*
X-6678571Y-42818095D01*
X-6640476Y-42894285D01*
X-6640476Y-42970476D01*
X-6678571Y-43046666D01*
X-6716666Y-43084761D01*
X-6792857Y-43122857D01*
X-7059523Y-43122857D01*
X-5840476Y-43541904D02*
X-6297619Y-43541904D01*
X-6069047Y-43541904D02*
X-6069047Y-42741904D01*
X-6145238Y-42856190D01*
X-6221428Y-42932380D01*
X-6297619Y-42970476D01*
X-5573809Y-42741904D02*
X-5078571Y-42741904D01*
X-5345238Y-43046666D01*
X-5230952Y-43046666D01*
X-5154761Y-43084761D01*
X-5116666Y-43122857D01*
X-5078571Y-43199047D01*
X-5078571Y-43389523D01*
X-5116666Y-43465714D01*
X-5154761Y-43503809D01*
X-5230952Y-43541904D01*
X-5459523Y-43541904D01*
X-5535714Y-43503809D01*
X-5573809Y-43465714D01*
X-7859523Y-41001904D02*
X-7859523Y-40201904D01*
X-7554761Y-40201904D01*
X-7478571Y-40240000D01*
X-7440476Y-40278095D01*
X-7402380Y-40354285D01*
X-7402380Y-40468571D01*
X-7440476Y-40544761D01*
X-7478571Y-40582857D01*
X-7554761Y-40620952D01*
X-7859523Y-40620952D01*
X-6792857Y-40582857D02*
X-6678571Y-40620952D01*
X-6640476Y-40659047D01*
X-6602380Y-40735238D01*
X-6602380Y-40849523D01*
X-6640476Y-40925714D01*
X-6678571Y-40963809D01*
X-6754761Y-41001904D01*
X-7059523Y-41001904D01*
X-7059523Y-40201904D01*
X-6792857Y-40201904D01*
X-6716666Y-40240000D01*
X-6678571Y-40278095D01*
X-6640476Y-40354285D01*
X-6640476Y-40430476D01*
X-6678571Y-40506666D01*
X-6716666Y-40544761D01*
X-6792857Y-40582857D01*
X-7059523Y-40582857D01*
X-5840476Y-41001904D02*
X-6297619Y-41001904D01*
X-6069047Y-41001904D02*
X-6069047Y-40201904D01*
X-6145238Y-40316190D01*
X-6221428Y-40392380D01*
X-6297619Y-40430476D01*
X-5535714Y-40278095D02*
X-5497619Y-40240000D01*
X-5421428Y-40201904D01*
X-5230952Y-40201904D01*
X-5154761Y-40240000D01*
X-5116666Y-40278095D01*
X-5078571Y-40354285D01*
X-5078571Y-40430476D01*
X-5116666Y-40544761D01*
X-5573809Y-41001904D01*
X-5078571Y-41001904D01*
X-7859523Y-38461904D02*
X-7859523Y-37661904D01*
X-7554761Y-37661904D01*
X-7478571Y-37700000D01*
X-7440476Y-37738095D01*
X-7402380Y-37814285D01*
X-7402380Y-37928571D01*
X-7440476Y-38004761D01*
X-7478571Y-38042857D01*
X-7554761Y-38080952D01*
X-7859523Y-38080952D01*
X-6792857Y-38042857D02*
X-6678571Y-38080952D01*
X-6640476Y-38119047D01*
X-6602380Y-38195238D01*
X-6602380Y-38309523D01*
X-6640476Y-38385714D01*
X-6678571Y-38423809D01*
X-6754761Y-38461904D01*
X-7059523Y-38461904D01*
X-7059523Y-37661904D01*
X-6792857Y-37661904D01*
X-6716666Y-37700000D01*
X-6678571Y-37738095D01*
X-6640476Y-37814285D01*
X-6640476Y-37890476D01*
X-6678571Y-37966666D01*
X-6716666Y-38004761D01*
X-6792857Y-38042857D01*
X-7059523Y-38042857D01*
X-5840476Y-38461904D02*
X-6297619Y-38461904D01*
X-6069047Y-38461904D02*
X-6069047Y-37661904D01*
X-6145238Y-37776190D01*
X-6221428Y-37852380D01*
X-6297619Y-37890476D01*
X-5078571Y-38461904D02*
X-5535714Y-38461904D01*
X-5307142Y-38461904D02*
X-5307142Y-37661904D01*
X-5383333Y-37776190D01*
X-5459523Y-37852380D01*
X-5535714Y-37890476D01*
X-7859523Y-35921904D02*
X-7859523Y-35121904D01*
X-7554761Y-35121904D01*
X-7478571Y-35160000D01*
X-7440476Y-35198095D01*
X-7402380Y-35274285D01*
X-7402380Y-35388571D01*
X-7440476Y-35464761D01*
X-7478571Y-35502857D01*
X-7554761Y-35540952D01*
X-7859523Y-35540952D01*
X-6792857Y-35502857D02*
X-6678571Y-35540952D01*
X-6640476Y-35579047D01*
X-6602380Y-35655238D01*
X-6602380Y-35769523D01*
X-6640476Y-35845714D01*
X-6678571Y-35883809D01*
X-6754761Y-35921904D01*
X-7059523Y-35921904D01*
X-7059523Y-35121904D01*
X-6792857Y-35121904D01*
X-6716666Y-35160000D01*
X-6678571Y-35198095D01*
X-6640476Y-35274285D01*
X-6640476Y-35350476D01*
X-6678571Y-35426666D01*
X-6716666Y-35464761D01*
X-6792857Y-35502857D01*
X-7059523Y-35502857D01*
X-5840476Y-35921904D02*
X-6297619Y-35921904D01*
X-6069047Y-35921904D02*
X-6069047Y-35121904D01*
X-6145238Y-35236190D01*
X-6221428Y-35312380D01*
X-6297619Y-35350476D01*
X-5345238Y-35121904D02*
X-5269047Y-35121904D01*
X-5192857Y-35160000D01*
X-5154761Y-35198095D01*
X-5116666Y-35274285D01*
X-5078571Y-35426666D01*
X-5078571Y-35617142D01*
X-5116666Y-35769523D01*
X-5154761Y-35845714D01*
X-5192857Y-35883809D01*
X-5269047Y-35921904D01*
X-5345238Y-35921904D01*
X-5421428Y-35883809D01*
X-5459523Y-35845714D01*
X-5497619Y-35769523D01*
X-5535714Y-35617142D01*
X-5535714Y-35426666D01*
X-5497619Y-35274285D01*
X-5459523Y-35198095D01*
X-5421428Y-35160000D01*
X-5345238Y-35121904D01*
X-7859523Y-33381904D02*
X-7859523Y-32581904D01*
X-7554761Y-32581904D01*
X-7478571Y-32620000D01*
X-7440476Y-32658095D01*
X-7402380Y-32734285D01*
X-7402380Y-32848571D01*
X-7440476Y-32924761D01*
X-7478571Y-32962857D01*
X-7554761Y-33000952D01*
X-7859523Y-33000952D01*
X-6792857Y-32962857D02*
X-6678571Y-33000952D01*
X-6640476Y-33039047D01*
X-6602380Y-33115238D01*
X-6602380Y-33229523D01*
X-6640476Y-33305714D01*
X-6678571Y-33343809D01*
X-6754761Y-33381904D01*
X-7059523Y-33381904D01*
X-7059523Y-32581904D01*
X-6792857Y-32581904D01*
X-6716666Y-32620000D01*
X-6678571Y-32658095D01*
X-6640476Y-32734285D01*
X-6640476Y-32810476D01*
X-6678571Y-32886666D01*
X-6716666Y-32924761D01*
X-6792857Y-32962857D01*
X-7059523Y-32962857D01*
X-6297619Y-32658095D02*
X-6259523Y-32620000D01*
X-6183333Y-32581904D01*
X-5992857Y-32581904D01*
X-5916666Y-32620000D01*
X-5878571Y-32658095D01*
X-5840476Y-32734285D01*
X-5840476Y-32810476D01*
X-5878571Y-32924761D01*
X-6335714Y-33381904D01*
X-5840476Y-33381904D01*
X-7859523Y-30841904D02*
X-7859523Y-30041904D01*
X-7554761Y-30041904D01*
X-7478571Y-30080000D01*
X-7440476Y-30118095D01*
X-7402380Y-30194285D01*
X-7402380Y-30308571D01*
X-7440476Y-30384761D01*
X-7478571Y-30422857D01*
X-7554761Y-30460952D01*
X-7859523Y-30460952D01*
X-6792857Y-30422857D02*
X-6678571Y-30460952D01*
X-6640476Y-30499047D01*
X-6602380Y-30575238D01*
X-6602380Y-30689523D01*
X-6640476Y-30765714D01*
X-6678571Y-30803809D01*
X-6754761Y-30841904D01*
X-7059523Y-30841904D01*
X-7059523Y-30041904D01*
X-6792857Y-30041904D01*
X-6716666Y-30080000D01*
X-6678571Y-30118095D01*
X-6640476Y-30194285D01*
X-6640476Y-30270476D01*
X-6678571Y-30346666D01*
X-6716666Y-30384761D01*
X-6792857Y-30422857D01*
X-7059523Y-30422857D01*
X-5840476Y-30841904D02*
X-6297619Y-30841904D01*
X-6069047Y-30841904D02*
X-6069047Y-30041904D01*
X-6145238Y-30156190D01*
X-6221428Y-30232380D01*
X-6297619Y-30270476D01*
X-7859523Y-28301904D02*
X-7859523Y-27501904D01*
X-7554761Y-27501904D01*
X-7478571Y-27540000D01*
X-7440476Y-27578095D01*
X-7402380Y-27654285D01*
X-7402380Y-27768571D01*
X-7440476Y-27844761D01*
X-7478571Y-27882857D01*
X-7554761Y-27920952D01*
X-7859523Y-27920952D01*
X-6792857Y-27882857D02*
X-6678571Y-27920952D01*
X-6640476Y-27959047D01*
X-6602380Y-28035238D01*
X-6602380Y-28149523D01*
X-6640476Y-28225714D01*
X-6678571Y-28263809D01*
X-6754761Y-28301904D01*
X-7059523Y-28301904D01*
X-7059523Y-27501904D01*
X-6792857Y-27501904D01*
X-6716666Y-27540000D01*
X-6678571Y-27578095D01*
X-6640476Y-27654285D01*
X-6640476Y-27730476D01*
X-6678571Y-27806666D01*
X-6716666Y-27844761D01*
X-6792857Y-27882857D01*
X-7059523Y-27882857D01*
X-6107142Y-27501904D02*
X-6030952Y-27501904D01*
X-5954761Y-27540000D01*
X-5916666Y-27578095D01*
X-5878571Y-27654285D01*
X-5840476Y-27806666D01*
X-5840476Y-27997142D01*
X-5878571Y-28149523D01*
X-5916666Y-28225714D01*
X-5954761Y-28263809D01*
X-6030952Y-28301904D01*
X-6107142Y-28301904D01*
X-6183333Y-28263809D01*
X-6221428Y-28225714D01*
X-6259523Y-28149523D01*
X-6297619Y-27997142D01*
X-6297619Y-27806666D01*
X-6259523Y-27654285D01*
X-6221428Y-27578095D01*
X-6183333Y-27540000D01*
X-6107142Y-27501904D01*
X-7859523Y-25761904D02*
X-7859523Y-24961904D01*
X-7554761Y-24961904D01*
X-7478571Y-25000000D01*
X-7440476Y-25038095D01*
X-7402380Y-25114285D01*
X-7402380Y-25228571D01*
X-7440476Y-25304761D01*
X-7478571Y-25342857D01*
X-7554761Y-25380952D01*
X-7859523Y-25380952D01*
X-7097619Y-25533333D02*
X-6716666Y-25533333D01*
X-7173809Y-25761904D02*
X-6907142Y-24961904D01*
X-6640476Y-25761904D01*
X-6450000Y-24961904D02*
X-5916666Y-24961904D01*
X-6259523Y-25761904D01*
X-7859523Y-23221904D02*
X-7859523Y-22421904D01*
X-7554761Y-22421904D01*
X-7478571Y-22460000D01*
X-7440476Y-22498095D01*
X-7402380Y-22574285D01*
X-7402380Y-22688571D01*
X-7440476Y-22764761D01*
X-7478571Y-22802857D01*
X-7554761Y-22840952D01*
X-7859523Y-22840952D01*
X-7097619Y-22993333D02*
X-6716666Y-22993333D01*
X-7173809Y-23221904D02*
X-6907142Y-22421904D01*
X-6640476Y-23221904D01*
X-6030952Y-22421904D02*
X-6183333Y-22421904D01*
X-6259523Y-22460000D01*
X-6297619Y-22498095D01*
X-6373809Y-22612380D01*
X-6411904Y-22764761D01*
X-6411904Y-23069523D01*
X-6373809Y-23145714D01*
X-6335714Y-23183809D01*
X-6259523Y-23221904D01*
X-6107142Y-23221904D01*
X-6030952Y-23183809D01*
X-5992857Y-23145714D01*
X-5954761Y-23069523D01*
X-5954761Y-22879047D01*
X-5992857Y-22802857D01*
X-6030952Y-22764761D01*
X-6107142Y-22726666D01*
X-6259523Y-22726666D01*
X-6335714Y-22764761D01*
X-6373809Y-22802857D01*
X-6411904Y-22879047D01*
X-7859523Y-20681904D02*
X-7859523Y-19881904D01*
X-7554761Y-19881904D01*
X-7478571Y-19920000D01*
X-7440476Y-19958095D01*
X-7402380Y-20034285D01*
X-7402380Y-20148571D01*
X-7440476Y-20224761D01*
X-7478571Y-20262857D01*
X-7554761Y-20300952D01*
X-7859523Y-20300952D01*
X-7097619Y-20453333D02*
X-6716666Y-20453333D01*
X-7173809Y-20681904D02*
X-6907142Y-19881904D01*
X-6640476Y-20681904D01*
X-5992857Y-19881904D02*
X-6373809Y-19881904D01*
X-6411904Y-20262857D01*
X-6373809Y-20224761D01*
X-6297619Y-20186666D01*
X-6107142Y-20186666D01*
X-6030952Y-20224761D01*
X-5992857Y-20262857D01*
X-5954761Y-20339047D01*
X-5954761Y-20529523D01*
X-5992857Y-20605714D01*
X-6030952Y-20643809D01*
X-6107142Y-20681904D01*
X-6297619Y-20681904D01*
X-6373809Y-20643809D01*
X-6411904Y-20605714D01*
X-7859523Y-18141904D02*
X-7859523Y-17341904D01*
X-7554761Y-17341904D01*
X-7478571Y-17380000D01*
X-7440476Y-17418095D01*
X-7402380Y-17494285D01*
X-7402380Y-17608571D01*
X-7440476Y-17684761D01*
X-7478571Y-17722857D01*
X-7554761Y-17760952D01*
X-7859523Y-17760952D01*
X-7097619Y-17913333D02*
X-6716666Y-17913333D01*
X-7173809Y-18141904D02*
X-6907142Y-17341904D01*
X-6640476Y-18141904D01*
X-6030952Y-17608571D02*
X-6030952Y-18141904D01*
X-6221428Y-17303809D02*
X-6411904Y-17875238D01*
X-5916666Y-17875238D01*
X-7859523Y-15601904D02*
X-7859523Y-14801904D01*
X-7554761Y-14801904D01*
X-7478571Y-14840000D01*
X-7440476Y-14878095D01*
X-7402380Y-14954285D01*
X-7402380Y-15068571D01*
X-7440476Y-15144761D01*
X-7478571Y-15182857D01*
X-7554761Y-15220952D01*
X-7859523Y-15220952D01*
X-7097619Y-15373333D02*
X-6716666Y-15373333D01*
X-7173809Y-15601904D02*
X-6907142Y-14801904D01*
X-6640476Y-15601904D01*
X-6450000Y-14801904D02*
X-5954761Y-14801904D01*
X-6221428Y-15106666D01*
X-6107142Y-15106666D01*
X-6030952Y-15144761D01*
X-5992857Y-15182857D01*
X-5954761Y-15259047D01*
X-5954761Y-15449523D01*
X-5992857Y-15525714D01*
X-6030952Y-15563809D01*
X-6107142Y-15601904D01*
X-6335714Y-15601904D01*
X-6411904Y-15563809D01*
X-6450000Y-15525714D01*
X-7859523Y-13061904D02*
X-7859523Y-12261904D01*
X-7554761Y-12261904D01*
X-7478571Y-12300000D01*
X-7440476Y-12338095D01*
X-7402380Y-12414285D01*
X-7402380Y-12528571D01*
X-7440476Y-12604761D01*
X-7478571Y-12642857D01*
X-7554761Y-12680952D01*
X-7859523Y-12680952D01*
X-7097619Y-12833333D02*
X-6716666Y-12833333D01*
X-7173809Y-13061904D02*
X-6907142Y-12261904D01*
X-6640476Y-13061904D01*
X-6411904Y-12338095D02*
X-6373809Y-12300000D01*
X-6297619Y-12261904D01*
X-6107142Y-12261904D01*
X-6030952Y-12300000D01*
X-5992857Y-12338095D01*
X-5954761Y-12414285D01*
X-5954761Y-12490476D01*
X-5992857Y-12604761D01*
X-6450000Y-13061904D01*
X-5954761Y-13061904D01*
X-7859523Y-10521904D02*
X-7859523Y-9721904D01*
X-7554761Y-9721904D01*
X-7478571Y-9760000D01*
X-7440476Y-9798095D01*
X-7402380Y-9874285D01*
X-7402380Y-9988571D01*
X-7440476Y-10064761D01*
X-7478571Y-10102857D01*
X-7554761Y-10140952D01*
X-7859523Y-10140952D01*
X-7097619Y-10293333D02*
X-6716666Y-10293333D01*
X-7173809Y-10521904D02*
X-6907142Y-9721904D01*
X-6640476Y-10521904D01*
X-5954761Y-10521904D02*
X-6411904Y-10521904D01*
X-6183333Y-10521904D02*
X-6183333Y-9721904D01*
X-6259523Y-9836190D01*
X-6335714Y-9912380D01*
X-6411904Y-9950476D01*
X-7859523Y-7981904D02*
X-7859523Y-7181904D01*
X-7554761Y-7181904D01*
X-7478571Y-7220000D01*
X-7440476Y-7258095D01*
X-7402380Y-7334285D01*
X-7402380Y-7448571D01*
X-7440476Y-7524761D01*
X-7478571Y-7562857D01*
X-7554761Y-7600952D01*
X-7859523Y-7600952D01*
X-7097619Y-7753333D02*
X-6716666Y-7753333D01*
X-7173809Y-7981904D02*
X-6907142Y-7181904D01*
X-6640476Y-7981904D01*
X-6221428Y-7181904D02*
X-6145238Y-7181904D01*
X-6069047Y-7220000D01*
X-6030952Y-7258095D01*
X-5992857Y-7334285D01*
X-5954761Y-7486666D01*
X-5954761Y-7677142D01*
X-5992857Y-7829523D01*
X-6030952Y-7905714D01*
X-6069047Y-7943809D01*
X-6145238Y-7981904D01*
X-6221428Y-7981904D01*
X-6297619Y-7943809D01*
X-6335714Y-7905714D01*
X-6373809Y-7829523D01*
X-6411904Y-7677142D01*
X-6411904Y-7486666D01*
X-6373809Y-7334285D01*
X-6335714Y-7258095D01*
X-6297619Y-7220000D01*
X-6221428Y-7181904D01*
X-7440476Y-4680000D02*
X-7516666Y-4641904D01*
X-7630952Y-4641904D01*
X-7745238Y-4680000D01*
X-7821428Y-4756190D01*
X-7859523Y-4832380D01*
X-7897619Y-4984761D01*
X-7897619Y-5099047D01*
X-7859523Y-5251428D01*
X-7821428Y-5327619D01*
X-7745238Y-5403809D01*
X-7630952Y-5441904D01*
X-7554761Y-5441904D01*
X-7440476Y-5403809D01*
X-7402380Y-5365714D01*
X-7402380Y-5099047D01*
X-7554761Y-5099047D01*
X-7059523Y-5441904D02*
X-7059523Y-4641904D01*
X-6602380Y-5441904D01*
X-6602380Y-4641904D01*
X-6221428Y-5441904D02*
X-6221428Y-4641904D01*
X-6030952Y-4641904D01*
X-5916666Y-4680000D01*
X-5840476Y-4756190D01*
X-5802380Y-4832380D01*
X-5764285Y-4984761D01*
X-5764285Y-5099047D01*
X-5802380Y-5251428D01*
X-5840476Y-5327619D01*
X-5916666Y-5403809D01*
X-6030952Y-5441904D01*
X-6221428Y-5441904D01*
X-7935714Y-2101904D02*
X-7440476Y-2101904D01*
X-7707142Y-2406666D01*
X-7592857Y-2406666D01*
X-7516666Y-2444761D01*
X-7478571Y-2482857D01*
X-7440476Y-2559047D01*
X-7440476Y-2749523D01*
X-7478571Y-2825714D01*
X-7516666Y-2863809D01*
X-7592857Y-2901904D01*
X-7821428Y-2901904D01*
X-7897619Y-2863809D01*
X-7935714Y-2825714D01*
X-7097619Y-2825714D02*
X-7059523Y-2863809D01*
X-7097619Y-2901904D01*
X-7135714Y-2863809D01*
X-7097619Y-2825714D01*
X-7097619Y-2901904D01*
X-6792857Y-2101904D02*
X-6297619Y-2101904D01*
X-6564285Y-2406666D01*
X-6450000Y-2406666D01*
X-6373809Y-2444761D01*
X-6335714Y-2482857D01*
X-6297619Y-2559047D01*
X-6297619Y-2749523D01*
X-6335714Y-2825714D01*
X-6373809Y-2863809D01*
X-6450000Y-2901904D01*
X-6678571Y-2901904D01*
X-6754761Y-2863809D01*
X-6792857Y-2825714D01*
X-6069047Y-2101904D02*
X-5802380Y-2901904D01*
X-5535714Y-2101904D01*
X-7478571Y438095D02*
X-7859523Y438095D01*
X-7897619Y57142D01*
X-7859523Y95238D01*
X-7783333Y133333D01*
X-7592857Y133333D01*
X-7516666Y95238D01*
X-7478571Y57142D01*
X-7440476Y-19047D01*
X-7440476Y-209523D01*
X-7478571Y-285714D01*
X-7516666Y-323809D01*
X-7592857Y-361904D01*
X-7783333Y-361904D01*
X-7859523Y-323809D01*
X-7897619Y-285714D01*
X-7211904Y438095D02*
X-6945238Y-361904D01*
X-6678571Y438095D01*
X-700000Y-14500000D02*
X-700000Y-13500000D01*
X-1700000Y-12350000D02*
X-2300000Y-12350000D01*
X-3300000Y-13500000D02*
X-3300000Y-14500000D01*
X-2300000Y-15650000D02*
X-1700000Y-15650000D01*
X-1950000Y-3150000D02*
X-5250000Y-3150000D01*
X-1950000Y-4650000D02*
X-5250000Y-4650000D01*
X-5250000Y-4650000D02*
X-5250000Y-3150000D01*
X-1950000Y-4650000D02*
X-1950000Y-3150000D01*
X-1950000Y-4650000D02*
X-5250000Y-4650000D01*
X-1950000Y-6150000D02*
X-5250000Y-6150000D01*
X-5250000Y-6150000D02*
X-5250000Y-4650000D01*
X-1950000Y-6150000D02*
X-1950000Y-4650000D01*
X3100000Y-11900000D02*
X3100000Y-16100000D01*
X3100000Y-16100000D02*
X900000Y-16100000D01*
X900000Y-16100000D02*
X900000Y-11900000D01*
X900000Y-11900000D02*
X3100000Y-11900000D01*
X3000000Y-21400000D02*
X3600000Y-21400000D01*
X3600000Y-21400000D02*
X3600000Y-22000000D01*
X3600000Y-28000000D02*
X3600000Y-28600000D01*
X3600000Y-28600000D02*
X3000000Y-28600000D01*
X-3000000Y-28600000D02*
X-3600000Y-28600000D01*
X-3600000Y-28600000D02*
X-3600000Y-28000000D01*
X-3600000Y-22000000D02*
X-3600000Y-21400000D01*
X-3600000Y-21400000D02*
X-3000000Y-21400000D01*
D12*
X2850000Y-19450000D02*
G75*
G03*
X2850000Y-19450000I-100000J0D01*
G01*
X-600000Y-6150000D02*
G75*
G03*
X-600000Y-6150000I-100000J0D01*
G01*
D10*
X1600000Y-3400000D02*
X1600000Y-3300000D01*
X1600000Y-3300000D02*
X2100000Y-3300000D01*
X2700000Y-3300000D02*
X3200000Y-3300000D01*
X3200000Y-3300000D02*
X3200000Y-3400000D01*
X3200000Y-4500000D02*
X3200000Y-4700000D01*
X3200000Y-4700000D02*
X2700000Y-4700000D01*
X2100000Y-4700000D02*
X1600000Y-4700000D01*
X1600000Y-4700000D02*
X1600000Y-4600000D01*
X-2200000Y-42500000D02*
X-2200000Y-41800000D01*
X-2200000Y-41800000D02*
X2200000Y-41800000D01*
X2200000Y-41800000D02*
X2200000Y-42500000D01*
X2200000Y-44500000D02*
X2200000Y-45200000D01*
X2200000Y-45200000D02*
X-2200000Y-45200000D01*
X-2200000Y-45200000D02*
X-2200000Y-44500000D01*
X-1950000Y-7650000D02*
X-1950000Y-6150000D01*
X-5250000Y-7650000D02*
X-5250000Y-6150000D01*
X-1950000Y-7650000D02*
X-5250000Y-7650000D01*
X-1950000Y-6150000D02*
X-5250000Y-6150000D01*
X-8150000Y9550000D02*
X-8150000Y8050000D01*
X-4850000Y9550000D02*
X-4850000Y8050000D01*
X-8150000Y9550000D02*
X-4850000Y9550000D01*
X-8150000Y8050000D02*
X-4850000Y8050000D01*
X4850000Y9550000D02*
X4850000Y8050000D01*
X8150000Y9550000D02*
X8150000Y8050000D01*
X4850000Y9550000D02*
X8150000Y9550000D01*
X4850000Y8050000D02*
X8150000Y8050000D01*
X7800000Y6700000D02*
X7800000Y1300000D01*
X7800000Y1300000D02*
X4400000Y1300000D01*
X7800000Y6700000D02*
X4400000Y6700000D01*
X-4400000Y6700000D02*
X-7800000Y6700000D01*
X-7800000Y6700000D02*
X-7800000Y1300000D01*
X-7800000Y1300000D02*
X-4400000Y1300000D01*
X8150000Y9550000D02*
X8150000Y11050000D01*
X4850000Y9550000D02*
X4850000Y11050000D01*
X8150000Y9550000D02*
X4850000Y9550000D01*
X8150000Y11050000D02*
X4850000Y11050000D01*
X-1950000Y-9150000D02*
X-1950000Y-7650000D01*
X-5250000Y-9150000D02*
X-5250000Y-7650000D01*
X-1950000Y-9150000D02*
X-5250000Y-9150000D01*
X-1950000Y-7650000D02*
X-5250000Y-7650000D01*
X-4850000Y9550000D02*
X-4850000Y11050000D01*
X-8150000Y9550000D02*
X-8150000Y11050000D01*
X-4850000Y9550000D02*
X-8150000Y9550000D01*
X-4850000Y11050000D02*
X-8150000Y11050000D01*
X4750000Y-29050000D02*
X3250000Y-29050000D01*
X4750000Y-32350000D02*
X3250000Y-32350000D01*
X4750000Y-29050000D02*
X4750000Y-32350000D01*
X3250000Y-29050000D02*
X3250000Y-32350000D01*
X-3250000Y-29050000D02*
X-4750000Y-29050000D01*
X-3250000Y-32350000D02*
X-4750000Y-32350000D01*
X-3250000Y-29050000D02*
X-3250000Y-32350000D01*
X-4750000Y-29050000D02*
X-4750000Y-32350000D01*
X-5500000Y-20950000D02*
X-4000000Y-20950000D01*
X-5500000Y-17650000D02*
X-4000000Y-17650000D01*
X-5500000Y-20950000D02*
X-5500000Y-17650000D01*
X-4000000Y-20950000D02*
X-4000000Y-17650000D01*
X4000000Y-20950000D02*
X5500000Y-20950000D01*
X4000000Y-17650000D02*
X5500000Y-17650000D01*
X4000000Y-20950000D02*
X4000000Y-17650000D01*
X5500000Y-20950000D02*
X5500000Y-17650000D01*
X3000000Y-17100000D02*
X1000000Y-17100000D01*
X3000000Y-16100000D02*
X1000000Y-16100000D01*
X3000000Y-16100000D02*
X3000000Y-17100000D01*
X1000000Y-16100000D02*
X1000000Y-17100000D01*
X3000000Y-11890000D02*
X1000000Y-11890000D01*
X3000000Y-10890000D02*
X1000000Y-10890000D01*
X3000000Y-10890000D02*
X3000000Y-11890000D01*
X1000000Y-10890000D02*
X1000000Y-11890000D01*
X-3000000Y-10900000D02*
X-1000000Y-10900000D01*
X-3000000Y-11900000D02*
X-1000000Y-11900000D01*
X-3000000Y-11900000D02*
X-3000000Y-10900000D01*
X-1000000Y-11900000D02*
X-1000000Y-10900000D01*
X-1000000Y-17100000D02*
X-3000000Y-17100000D01*
X-1000000Y-16100000D02*
X-3000000Y-16100000D01*
X-1000000Y-16100000D02*
X-1000000Y-17100000D01*
X-3000000Y-16100000D02*
X-3000000Y-17100000D01*
X-4880952Y-13980952D02*
X-4880952Y-14361904D01*
X-5147619Y-13561904D02*
X-4880952Y-13980952D01*
X-4614285Y-13561904D01*
X-3928571Y-14361904D02*
X-4385714Y-14361904D01*
X-4157142Y-14361904D02*
X-4157142Y-13561904D01*
X-4233333Y-13676190D01*
X-4309523Y-13752380D01*
X-4385714Y-13790476D01*
X-1214285Y-4185714D02*
X-1252380Y-4223809D01*
X-1366666Y-4261904D01*
X-1442857Y-4261904D01*
X-1557142Y-4223809D01*
X-1633333Y-4147619D01*
X-1671428Y-4071428D01*
X-1709523Y-3919047D01*
X-1709523Y-3804761D01*
X-1671428Y-3652380D01*
X-1633333Y-3576190D01*
X-1557142Y-3500000D01*
X-1442857Y-3461904D01*
X-1366666Y-3461904D01*
X-1252380Y-3500000D01*
X-1214285Y-3538095D01*
X-452380Y-4261904D02*
X-909523Y-4261904D01*
X-680952Y-4261904D02*
X-680952Y-3461904D01*
X-757142Y-3576190D01*
X-833333Y-3652380D01*
X-909523Y-3690476D01*
X42857Y-3461904D02*
X119047Y-3461904D01*
X195238Y-3500000D01*
X233333Y-3538095D01*
X271428Y-3614285D01*
X309523Y-3766666D01*
X309523Y-3957142D01*
X271428Y-4109523D01*
X233333Y-4185714D01*
X195238Y-4223809D01*
X119047Y-4261904D01*
X42857Y-4261904D01*
X-33333Y-4223809D01*
X-71428Y-4185714D01*
X-109523Y-4109523D01*
X-147619Y-3957142D01*
X-147619Y-3766666D01*
X-109523Y-3614285D01*
X-71428Y-3538095D01*
X-33333Y-3500000D01*
X42857Y-3461904D01*
X-1233333Y-5685714D02*
X-1271428Y-5723809D01*
X-1385714Y-5761904D01*
X-1461904Y-5761904D01*
X-1576190Y-5723809D01*
X-1652380Y-5647619D01*
X-1690476Y-5571428D01*
X-1728571Y-5419047D01*
X-1728571Y-5304761D01*
X-1690476Y-5152380D01*
X-1652380Y-5076190D01*
X-1576190Y-5000000D01*
X-1461904Y-4961904D01*
X-1385714Y-4961904D01*
X-1271428Y-5000000D01*
X-1233333Y-5038095D01*
X-852380Y-5761904D02*
X-700000Y-5761904D01*
X-623809Y-5723809D01*
X-585714Y-5685714D01*
X-509523Y-5571428D01*
X-471428Y-5419047D01*
X-471428Y-5114285D01*
X-509523Y-5038095D01*
X-547619Y-5000000D01*
X-623809Y-4961904D01*
X-776190Y-4961904D01*
X-852380Y-5000000D01*
X-890476Y-5038095D01*
X-928571Y-5114285D01*
X-928571Y-5304761D01*
X-890476Y-5380952D01*
X-852380Y-5419047D01*
X-776190Y-5457142D01*
X-623809Y-5457142D01*
X-547619Y-5419047D01*
X-509523Y-5380952D01*
X-471428Y-5304761D01*
X3619047Y-13980952D02*
X3619047Y-14361904D01*
X3352380Y-13561904D02*
X3619047Y-13980952D01*
X3885714Y-13561904D01*
X4114285Y-13638095D02*
X4152380Y-13600000D01*
X4228571Y-13561904D01*
X4419047Y-13561904D01*
X4495238Y-13600000D01*
X4533333Y-13638095D01*
X4571428Y-13714285D01*
X4571428Y-13790476D01*
X4533333Y-13904761D01*
X4076190Y-14361904D01*
X4571428Y-14361904D01*
X-609523Y-30295904D02*
X-609523Y-30943523D01*
X-571428Y-31019714D01*
X-533333Y-31057809D01*
X-457142Y-31095904D01*
X-304761Y-31095904D01*
X-228571Y-31057809D01*
X-190476Y-31019714D01*
X-152380Y-30943523D01*
X-152380Y-30295904D01*
X152380Y-30295904D02*
X647619Y-30295904D01*
X380952Y-30600666D01*
X495238Y-30600666D01*
X571428Y-30638761D01*
X609523Y-30676857D01*
X647619Y-30753047D01*
X647619Y-30943523D01*
X609523Y-31019714D01*
X571428Y-31057809D01*
X495238Y-31095904D01*
X266666Y-31095904D01*
X190476Y-31057809D01*
X152380Y-31019714D01*
X1790476Y-9061904D02*
X1790476Y-9709523D01*
X1828571Y-9785714D01*
X1866666Y-9823809D01*
X1942857Y-9861904D01*
X2095238Y-9861904D01*
X2171428Y-9823809D01*
X2209523Y-9785714D01*
X2247619Y-9709523D01*
X2247619Y-9061904D01*
X2590476Y-9138095D02*
X2628571Y-9100000D01*
X2704761Y-9061904D01*
X2895238Y-9061904D01*
X2971428Y-9100000D01*
X3009523Y-9138095D01*
X3047619Y-9214285D01*
X3047619Y-9290476D01*
X3009523Y-9404761D01*
X2552380Y-9861904D01*
X3047619Y-9861904D01*
X1790476Y-1861904D02*
X1790476Y-2509523D01*
X1828571Y-2585714D01*
X1866666Y-2623809D01*
X1942857Y-2661904D01*
X2095238Y-2661904D01*
X2171428Y-2623809D01*
X2209523Y-2585714D01*
X2247619Y-2509523D01*
X2247619Y-1861904D01*
X3047619Y-2661904D02*
X2590476Y-2661904D01*
X2819047Y-2661904D02*
X2819047Y-1861904D01*
X2742857Y-1976190D01*
X2666666Y-2052380D01*
X2590476Y-2090476D01*
X-1233333Y-7261904D02*
X-1500000Y-6880952D01*
X-1690476Y-7261904D02*
X-1690476Y-6461904D01*
X-1385714Y-6461904D01*
X-1309523Y-6500000D01*
X-1271428Y-6538095D01*
X-1233333Y-6614285D01*
X-1233333Y-6728571D01*
X-1271428Y-6804761D01*
X-1309523Y-6842857D01*
X-1385714Y-6880952D01*
X-1690476Y-6880952D01*
X-928571Y-6538095D02*
X-890476Y-6500000D01*
X-814285Y-6461904D01*
X-623809Y-6461904D01*
X-547619Y-6500000D01*
X-509523Y-6538095D01*
X-471428Y-6614285D01*
X-471428Y-6690476D01*
X-509523Y-6804761D01*
X-966666Y-7261904D01*
X-471428Y-7261904D01*
X-9133333Y8438095D02*
X-9400000Y8819047D01*
X-9590476Y8438095D02*
X-9590476Y9238095D01*
X-9285714Y9238095D01*
X-9209523Y9200000D01*
X-9171428Y9161904D01*
X-9133333Y9085714D01*
X-9133333Y8971428D01*
X-9171428Y8895238D01*
X-9209523Y8857142D01*
X-9285714Y8819047D01*
X-9590476Y8819047D01*
X-8371428Y8438095D02*
X-8828571Y8438095D01*
X-8600000Y8438095D02*
X-8600000Y9238095D01*
X-8676190Y9123809D01*
X-8752380Y9047619D01*
X-8828571Y9009523D01*
X8766666Y8438095D02*
X8385714Y8438095D01*
X8385714Y9238095D01*
X9452380Y8438095D02*
X8995238Y8438095D01*
X9223809Y8438095D02*
X9223809Y9238095D01*
X9147619Y9123809D01*
X9071428Y9047619D01*
X8995238Y9009523D01*
X8623333Y1962095D02*
X8623333Y1390666D01*
X8585238Y1276380D01*
X8509047Y1200190D01*
X8394761Y1162095D01*
X8318571Y1162095D01*
X9347142Y1695428D02*
X9347142Y1162095D01*
X9156666Y2000190D02*
X8966190Y1428761D01*
X9461428Y1428761D01*
X-9156666Y1962095D02*
X-9156666Y1390666D01*
X-9194761Y1276380D01*
X-9270952Y1200190D01*
X-9385238Y1162095D01*
X-9461428Y1162095D01*
X-8851904Y1962095D02*
X-8356666Y1962095D01*
X-8623333Y1657333D01*
X-8509047Y1657333D01*
X-8432857Y1619238D01*
X-8394761Y1581142D01*
X-8356666Y1504952D01*
X-8356666Y1314476D01*
X-8394761Y1238285D01*
X-8432857Y1200190D01*
X-8509047Y1162095D01*
X-8737619Y1162095D01*
X-8813809Y1200190D01*
X-8851904Y1238285D01*
X4928571Y6938095D02*
X4471428Y6938095D01*
X4700000Y6938095D02*
X4700000Y7738095D01*
X4623809Y7623809D01*
X4547619Y7547619D01*
X4471428Y7509523D01*
X4471428Y961904D02*
X4509523Y1000000D01*
X4585714Y1038095D01*
X4776190Y1038095D01*
X4852380Y1000000D01*
X4890476Y961904D01*
X4928571Y885714D01*
X4928571Y809523D01*
X4890476Y695238D01*
X4433333Y238095D01*
X4928571Y238095D01*
X-5152380Y6938095D02*
X-5609523Y6938095D01*
X-5380952Y6938095D02*
X-5380952Y7738095D01*
X-5457142Y7623809D01*
X-5533333Y7547619D01*
X-5609523Y7509523D01*
X-4885714Y7738095D02*
X-4390476Y7738095D01*
X-4657142Y7433333D01*
X-4542857Y7433333D01*
X-4466666Y7395238D01*
X-4428571Y7357142D01*
X-4390476Y7280952D01*
X-4390476Y7090476D01*
X-4428571Y7014285D01*
X-4466666Y6976190D01*
X-4542857Y6938095D01*
X-4771428Y6938095D01*
X-4847619Y6976190D01*
X-4885714Y7014285D01*
X-5152380Y238095D02*
X-5609523Y238095D01*
X-5380952Y238095D02*
X-5380952Y1038095D01*
X-5457142Y923809D01*
X-5533333Y847619D01*
X-5609523Y809523D01*
X-4466666Y771428D02*
X-4466666Y238095D01*
X-4657142Y1076190D02*
X-4847619Y504761D01*
X-4352380Y504761D01*
X8633333Y10357142D02*
X8366666Y10357142D01*
X8366666Y9938095D02*
X8366666Y10738095D01*
X8747619Y10738095D01*
X9471428Y9938095D02*
X9014285Y9938095D01*
X9242857Y9938095D02*
X9242857Y10738095D01*
X9166666Y10623809D01*
X9090476Y10547619D01*
X9014285Y10509523D01*
X-1690476Y-8761904D02*
X-1690476Y-7961904D01*
X-1500000Y-7961904D01*
X-1385714Y-8000000D01*
X-1309523Y-8076190D01*
X-1271428Y-8152380D01*
X-1233333Y-8304761D01*
X-1233333Y-8419047D01*
X-1271428Y-8571428D01*
X-1309523Y-8647619D01*
X-1385714Y-8723809D01*
X-1500000Y-8761904D01*
X-1690476Y-8761904D01*
X-928571Y-8038095D02*
X-890476Y-8000000D01*
X-814285Y-7961904D01*
X-623809Y-7961904D01*
X-547619Y-8000000D01*
X-509523Y-8038095D01*
X-471428Y-8114285D01*
X-471428Y-8190476D01*
X-509523Y-8304761D01*
X-966666Y-8761904D01*
X-471428Y-8761904D01*
X-9590476Y9938095D02*
X-9590476Y10738095D01*
X-9400000Y10738095D01*
X-9285714Y10700000D01*
X-9209523Y10623809D01*
X-9171428Y10547619D01*
X-9133333Y10395238D01*
X-9133333Y10280952D01*
X-9171428Y10128571D01*
X-9209523Y10052380D01*
X-9285714Y9976190D01*
X-9400000Y9938095D01*
X-9590476Y9938095D01*
X-8371428Y9938095D02*
X-8828571Y9938095D01*
X-8600000Y9938095D02*
X-8600000Y10738095D01*
X-8676190Y10623809D01*
X-8752380Y10547619D01*
X-8828571Y10509523D01*
X3866666Y-33285714D02*
X3828571Y-33323809D01*
X3714285Y-33361904D01*
X3638095Y-33361904D01*
X3523809Y-33323809D01*
X3447619Y-33247619D01*
X3409523Y-33171428D01*
X3371428Y-33019047D01*
X3371428Y-32904761D01*
X3409523Y-32752380D01*
X3447619Y-32676190D01*
X3523809Y-32600000D01*
X3638095Y-32561904D01*
X3714285Y-32561904D01*
X3828571Y-32600000D01*
X3866666Y-32638095D01*
X4323809Y-32904761D02*
X4247619Y-32866666D01*
X4209523Y-32828571D01*
X4171428Y-32752380D01*
X4171428Y-32714285D01*
X4209523Y-32638095D01*
X4247619Y-32600000D01*
X4323809Y-32561904D01*
X4476190Y-32561904D01*
X4552380Y-32600000D01*
X4590476Y-32638095D01*
X4628571Y-32714285D01*
X4628571Y-32752380D01*
X4590476Y-32828571D01*
X4552380Y-32866666D01*
X4476190Y-32904761D01*
X4323809Y-32904761D01*
X4247619Y-32942857D01*
X4209523Y-32980952D01*
X4171428Y-33057142D01*
X4171428Y-33209523D01*
X4209523Y-33285714D01*
X4247619Y-33323809D01*
X4323809Y-33361904D01*
X4476190Y-33361904D01*
X4552380Y-33323809D01*
X4590476Y-33285714D01*
X4628571Y-33209523D01*
X4628571Y-33057142D01*
X4590476Y-32980952D01*
X4552380Y-32942857D01*
X4476190Y-32904761D01*
X-4133333Y-33285714D02*
X-4171428Y-33323809D01*
X-4285714Y-33361904D01*
X-4361904Y-33361904D01*
X-4476190Y-33323809D01*
X-4552380Y-33247619D01*
X-4590476Y-33171428D01*
X-4628571Y-33019047D01*
X-4628571Y-32904761D01*
X-4590476Y-32752380D01*
X-4552380Y-32676190D01*
X-4476190Y-32600000D01*
X-4361904Y-32561904D01*
X-4285714Y-32561904D01*
X-4171428Y-32600000D01*
X-4133333Y-32638095D01*
X-3866666Y-32561904D02*
X-3333333Y-32561904D01*
X-3676190Y-33361904D01*
X-4883333Y-17385714D02*
X-4921428Y-17423809D01*
X-5035714Y-17461904D01*
X-5111904Y-17461904D01*
X-5226190Y-17423809D01*
X-5302380Y-17347619D01*
X-5340476Y-17271428D01*
X-5378571Y-17119047D01*
X-5378571Y-17004761D01*
X-5340476Y-16852380D01*
X-5302380Y-16776190D01*
X-5226190Y-16700000D01*
X-5111904Y-16661904D01*
X-5035714Y-16661904D01*
X-4921428Y-16700000D01*
X-4883333Y-16738095D01*
X-4197619Y-16661904D02*
X-4350000Y-16661904D01*
X-4426190Y-16700000D01*
X-4464285Y-16738095D01*
X-4540476Y-16852380D01*
X-4578571Y-17004761D01*
X-4578571Y-17309523D01*
X-4540476Y-17385714D01*
X-4502380Y-17423809D01*
X-4426190Y-17461904D01*
X-4273809Y-17461904D01*
X-4197619Y-17423809D01*
X-4159523Y-17385714D01*
X-4121428Y-17309523D01*
X-4121428Y-17119047D01*
X-4159523Y-17042857D01*
X-4197619Y-17004761D01*
X-4273809Y-16966666D01*
X-4426190Y-16966666D01*
X-4502380Y-17004761D01*
X-4540476Y-17042857D01*
X-4578571Y-17119047D01*
X4616666Y-17385714D02*
X4578571Y-17423809D01*
X4464285Y-17461904D01*
X4388095Y-17461904D01*
X4273809Y-17423809D01*
X4197619Y-17347619D01*
X4159523Y-17271428D01*
X4121428Y-17119047D01*
X4121428Y-17004761D01*
X4159523Y-16852380D01*
X4197619Y-16776190D01*
X4273809Y-16700000D01*
X4388095Y-16661904D01*
X4464285Y-16661904D01*
X4578571Y-16700000D01*
X4616666Y-16738095D01*
X5340476Y-16661904D02*
X4959523Y-16661904D01*
X4921428Y-17042857D01*
X4959523Y-17004761D01*
X5035714Y-16966666D01*
X5226190Y-16966666D01*
X5302380Y-17004761D01*
X5340476Y-17042857D01*
X5378571Y-17119047D01*
X5378571Y-17309523D01*
X5340476Y-17385714D01*
X5302380Y-17423809D01*
X5226190Y-17461904D01*
X5035714Y-17461904D01*
X4959523Y-17423809D01*
X4921428Y-17385714D01*
X1866666Y-18035714D02*
X1828571Y-18073809D01*
X1714285Y-18111904D01*
X1638095Y-18111904D01*
X1523809Y-18073809D01*
X1447619Y-17997619D01*
X1409523Y-17921428D01*
X1371428Y-17769047D01*
X1371428Y-17654761D01*
X1409523Y-17502380D01*
X1447619Y-17426190D01*
X1523809Y-17350000D01*
X1638095Y-17311904D01*
X1714285Y-17311904D01*
X1828571Y-17350000D01*
X1866666Y-17388095D01*
X2552380Y-17578571D02*
X2552380Y-18111904D01*
X2361904Y-17273809D02*
X2171428Y-17845238D01*
X2666666Y-17845238D01*
X3866666Y-11685714D02*
X3828571Y-11723809D01*
X3714285Y-11761904D01*
X3638095Y-11761904D01*
X3523809Y-11723809D01*
X3447619Y-11647619D01*
X3409523Y-11571428D01*
X3371428Y-11419047D01*
X3371428Y-11304761D01*
X3409523Y-11152380D01*
X3447619Y-11076190D01*
X3523809Y-11000000D01*
X3638095Y-10961904D01*
X3714285Y-10961904D01*
X3828571Y-11000000D01*
X3866666Y-11038095D01*
X4133333Y-10961904D02*
X4628571Y-10961904D01*
X4361904Y-11266666D01*
X4476190Y-11266666D01*
X4552380Y-11304761D01*
X4590476Y-11342857D01*
X4628571Y-11419047D01*
X4628571Y-11609523D01*
X4590476Y-11685714D01*
X4552380Y-11723809D01*
X4476190Y-11761904D01*
X4247619Y-11761904D01*
X4171428Y-11723809D01*
X4133333Y-11685714D01*
X-4633333Y-11685714D02*
X-4671428Y-11723809D01*
X-4785714Y-11761904D01*
X-4861904Y-11761904D01*
X-4976190Y-11723809D01*
X-5052380Y-11647619D01*
X-5090476Y-11571428D01*
X-5128571Y-11419047D01*
X-5128571Y-11304761D01*
X-5090476Y-11152380D01*
X-5052380Y-11076190D01*
X-4976190Y-11000000D01*
X-4861904Y-10961904D01*
X-4785714Y-10961904D01*
X-4671428Y-11000000D01*
X-4633333Y-11038095D01*
X-4328571Y-11038095D02*
X-4290476Y-11000000D01*
X-4214285Y-10961904D01*
X-4023809Y-10961904D01*
X-3947619Y-11000000D01*
X-3909523Y-11038095D01*
X-3871428Y-11114285D01*
X-3871428Y-11190476D01*
X-3909523Y-11304761D01*
X-4366666Y-11761904D01*
X-3871428Y-11761904D01*
X-2133333Y-18035714D02*
X-2171428Y-18073809D01*
X-2285714Y-18111904D01*
X-2361904Y-18111904D01*
X-2476190Y-18073809D01*
X-2552380Y-17997619D01*
X-2590476Y-17921428D01*
X-2628571Y-17769047D01*
X-2628571Y-17654761D01*
X-2590476Y-17502380D01*
X-2552380Y-17426190D01*
X-2476190Y-17350000D01*
X-2361904Y-17311904D01*
X-2285714Y-17311904D01*
X-2171428Y-17350000D01*
X-2133333Y-17388095D01*
X-1371428Y-18111904D02*
X-1828571Y-18111904D01*
X-1600000Y-18111904D02*
X-1600000Y-17311904D01*
X-1676190Y-17426190D01*
X-1752380Y-17502380D01*
X-1828571Y-17540476D01*
M02*
