M48
; DRILL file {KiCad (5.1.9-0-10_14)} date Saturday, July 10, 2021 at 08:46:17 PM
; FORMAT={-:-/ absolute / metric / decimal}
; #@! TF.CreationDate,2021-07-10T20:46:17+09:00
; #@! TF.GenerationSoftware,Kicad,Pcbnew,(5.1.9-0-10_14)
FMAT,2
METRIC
T1C0.305
T2C0.800
T3C1.000
T4C0.750
%
G90
G05
T1
X-6.05Y-18.45
X-5.287Y-31.112
X-3.85Y-10.0
X-3.461Y-2.378
X-2.546Y-40.258
X-2.348Y-1.277
X-1.35Y-7.751
X-1.1Y-17.59
X-0.68Y-19.161
X-0.129Y-22.042
X0.6Y-5.557
X1.176Y-43.478
X1.61Y-1.04
X1.75Y-28.13
X2.378Y-1.616
X3.234Y-9.185
X3.368Y-19.65
X3.7Y-5.2
X5.35Y-16.25
X5.432Y-7.0
X5.576Y-28.044
T2
X-8.89Y0.0
X-8.89Y-2.54
X-8.89Y-5.08
X-8.89Y-7.62
X-8.89Y-10.16
X-8.89Y-12.7
X-8.89Y-15.24
X-8.89Y-17.78
X-8.89Y-20.32
X-8.89Y-22.86
X-8.89Y-25.4
X-8.89Y-27.94
X-8.89Y-30.48
X-8.89Y-33.02
X-8.89Y-35.56
X-8.89Y-38.1
X-8.89Y-40.64
X-8.89Y-43.18
X-8.89Y-45.72
X-3.25Y12.5
X3.25Y12.5
X8.89Y0.0
X8.89Y-2.54
X8.89Y-5.08
X8.89Y-7.62
X8.89Y-10.16
X8.89Y-12.7
X8.89Y-15.24
X8.89Y-17.78
X8.89Y-20.32
X8.89Y-22.86
X8.89Y-25.4
X8.89Y-27.94
X8.89Y-30.48
X8.89Y-33.02
X8.89Y-35.56
X8.89Y-38.1
X8.89Y-40.64
X8.89Y-43.18
X8.89Y-45.72
T3
X-8.89Y12.2
X8.9Y12.2
T4
X0.0Y-42.6
X0.0Y-44.4
T0
M30
