G04 #@! TF.GenerationSoftware,KiCad,Pcbnew,(5.1.9-0-10_14)*
G04 #@! TF.CreationDate,2021-07-10T20:46:14+09:00*
G04 #@! TF.ProjectId,EB-STM32L4P5CG,45422d53-544d-4333-924c-34503543472e,V1.0*
G04 #@! TF.SameCoordinates,Original*
G04 #@! TF.FileFunction,Legend,Bot*
G04 #@! TF.FilePolarity,Positive*
%FSLAX46Y46*%
G04 Gerber Fmt 4.6, Leading zero omitted, Abs format (unit mm)*
G04 Created by KiCad (PCBNEW (5.1.9-0-10_14)) date 2021-07-10 20:46:14*
%MOMM*%
%LPD*%
G01*
G04 APERTURE LIST*
%ADD10C,0.200000*%
G04 APERTURE END LIST*
D10*
X9200000Y5250000D02*
X8733333Y5250000D01*
X8533333Y4516666D02*
X9200000Y4516666D01*
X9200000Y5916666D01*
X8533333Y5916666D01*
X7466666Y5250000D02*
X7266666Y5183333D01*
X7200000Y5116666D01*
X7133333Y4983333D01*
X7133333Y4783333D01*
X7200000Y4650000D01*
X7266666Y4583333D01*
X7399999Y4516666D01*
X7933333Y4516666D01*
X7933333Y5916666D01*
X7466666Y5916666D01*
X7333333Y5850000D01*
X7266666Y5783333D01*
X7200000Y5650000D01*
X7200000Y5516666D01*
X7266666Y5383333D01*
X7333333Y5316666D01*
X7466666Y5250000D01*
X7933333Y5250000D01*
X6533333Y5050000D02*
X5466666Y5050000D01*
X4866666Y4583333D02*
X4666666Y4516666D01*
X4333333Y4516666D01*
X4199999Y4583333D01*
X4133333Y4650000D01*
X4066666Y4783333D01*
X4066666Y4916666D01*
X4133333Y5050000D01*
X4199999Y5116666D01*
X4333333Y5183333D01*
X4599999Y5250000D01*
X4733333Y5316666D01*
X4799999Y5383333D01*
X4866666Y5516666D01*
X4866666Y5650000D01*
X4799999Y5783333D01*
X4733333Y5850000D01*
X4599999Y5916666D01*
X4266666Y5916666D01*
X4066666Y5850000D01*
X3666666Y5916666D02*
X2866666Y5916666D01*
X3266666Y4516666D02*
X3266666Y5916666D01*
X2399999Y4516666D02*
X2399999Y5916666D01*
X1933333Y4916666D01*
X1466666Y5916666D01*
X1466666Y4516666D01*
X933333Y5916666D02*
X66666Y5916666D01*
X533333Y5383333D01*
X333333Y5383333D01*
X199999Y5316666D01*
X133333Y5250000D01*
X66666Y5116666D01*
X66666Y4783333D01*
X133333Y4650000D01*
X199999Y4583333D01*
X333333Y4516666D01*
X733333Y4516666D01*
X866666Y4583333D01*
X933333Y4650000D01*
X-466666Y5783333D02*
X-533333Y5850000D01*
X-666666Y5916666D01*
X-1000000Y5916666D01*
X-1133333Y5850000D01*
X-1200000Y5783333D01*
X-1266666Y5650000D01*
X-1266666Y5516666D01*
X-1200000Y5316666D01*
X-400000Y4516666D01*
X-1266666Y4516666D01*
X-2533333Y4516666D02*
X-1866666Y4516666D01*
X-1866666Y5916666D01*
X-3600000Y5450000D02*
X-3600000Y4516666D01*
X-3266666Y5983333D02*
X-2933333Y4983333D01*
X-3800000Y4983333D01*
X-4333333Y4516666D02*
X-4333333Y5916666D01*
X-4866666Y5916666D01*
X-5000000Y5850000D01*
X-5066666Y5783333D01*
X-5133333Y5650000D01*
X-5133333Y5450000D01*
X-5066666Y5316666D01*
X-5000000Y5250000D01*
X-4866666Y5183333D01*
X-4333333Y5183333D01*
X-6400000Y5916666D02*
X-5733333Y5916666D01*
X-5666666Y5250000D01*
X-5733333Y5316666D01*
X-5866666Y5383333D01*
X-6200000Y5383333D01*
X-6333333Y5316666D01*
X-6400000Y5250000D01*
X-6466666Y5116666D01*
X-6466666Y4783333D01*
X-6400000Y4650000D01*
X-6333333Y4583333D01*
X-6200000Y4516666D01*
X-5866666Y4516666D01*
X-5733333Y4583333D01*
X-5666666Y4650000D01*
X-7866666Y4650000D02*
X-7800000Y4583333D01*
X-7600000Y4516666D01*
X-7466666Y4516666D01*
X-7266666Y4583333D01*
X-7133333Y4716666D01*
X-7066666Y4850000D01*
X-7000000Y5116666D01*
X-7000000Y5316666D01*
X-7066666Y5583333D01*
X-7133333Y5716666D01*
X-7266666Y5850000D01*
X-7466666Y5916666D01*
X-7600000Y5916666D01*
X-7800000Y5850000D01*
X-7866666Y5783333D01*
X-9200000Y5850000D02*
X-9066666Y5916666D01*
X-8866666Y5916666D01*
X-8666666Y5850000D01*
X-8533333Y5716666D01*
X-8466666Y5583333D01*
X-8400000Y5316666D01*
X-8400000Y5116666D01*
X-8466666Y4850000D01*
X-8533333Y4716666D01*
X-8666666Y4583333D01*
X-8866666Y4516666D01*
X-9000000Y4516666D01*
X-9200000Y4583333D01*
X-9266666Y4650000D01*
X-9266666Y5116666D01*
X-9000000Y5116666D01*
X2133333Y3616666D02*
X1666666Y2216666D01*
X1200000Y3616666D01*
X0Y2216666D02*
X800000Y2216666D01*
X400000Y2216666D02*
X400000Y3616666D01*
X533333Y3416666D01*
X666666Y3283333D01*
X800000Y3216666D01*
X-600000Y2350000D02*
X-666666Y2283333D01*
X-600000Y2216666D01*
X-533333Y2283333D01*
X-600000Y2350000D01*
X-600000Y2216666D01*
X-1533333Y3616666D02*
X-1666666Y3616666D01*
X-1800000Y3550000D01*
X-1866666Y3483333D01*
X-1933333Y3350000D01*
X-2000000Y3083333D01*
X-2000000Y2750000D01*
X-1933333Y2483333D01*
X-1866666Y2350000D01*
X-1800000Y2283333D01*
X-1666666Y2216666D01*
X-1533333Y2216666D01*
X-1400000Y2283333D01*
X-1333333Y2350000D01*
X-1266666Y2483333D01*
X-1200000Y2750000D01*
X-1200000Y3083333D01*
X-1266666Y3350000D01*
X-1333333Y3483333D01*
X-1400000Y3550000D01*
X-1533333Y3616666D01*
M02*
